<svg xmlns="http://www.w3.org/2000/svg" xmlns:xlink="http://www.w3.org/1999/xlink" viewBox="0 0 500 262.37"><defs><style>.cls-1,.cls-12,.cls-7{fill:none;}.cls-12,.cls-2,.cls-5,.cls-6{opacity:0.1;}.cls-3{fill:#3f3d56;}.cls-4,.cls-6{fill:#2180ce;}.cls-12,.cls-5,.cls-6{isolation:isolate;}.cls-7{stroke:#3f3d56;stroke-width:4px;}.cls-12,.cls-7{stroke-miterlimit:10;}.cls-8{fill:url(#linear-gradient);}.cls-9{fill:#be6f72;}.cls-10{fill:#ff6f61;}.cls-11{fill:url(#ad310e25-2b04-44c8-bb7b-9823891);}.cls-12{stroke:#000;}.cls-13{fill:url(#linear-gradient-2);}.cls-14{fill:#2f2e41;}.cls-15{fill:#fbbebe;}.cls-16{fill:#e8e8f0;}.cls-17{fill:#f86d70;}</style><linearGradient id="linear-gradient" x1="401.95" y1="-158.8" x2="401.95" y2="-80.3" gradientTransform="matrix(1, 0, 0, -1, -52, 101.36)" gradientUnits="userSpaceOnUse"><stop offset="0" stop-color="gray" stop-opacity="0.25"/><stop offset="0.54" stop-color="gray" stop-opacity="0.12"/><stop offset="1" stop-color="gray" stop-opacity="0.1"/></linearGradient><pattern id="ad310e25-2b04-44c8-bb7b-9823891" data-name="ad310e25-2b04-44c8-bb7b-9823891" width="36.88" height="49.48" patternTransform="matrix(1, 0, 0, -1, -46.68, 1247.23)" patternUnits="userSpaceOnUse" viewBox="0 0 36.88 49.48"><rect class="cls-1" width="36.88" height="49.48"/><rect class="cls-1" width="36.88" height="49.48"/><path d="M4.33,36.29c4.5,0,4.51,7,0,7S-.19,36.29,4.33,36.29Z"/><path d="M4.51,32.32c4.51,0,4.52,7,0,7S0,32.32,4.51,32.32Z"/><path d="M4.51,28.54c4.51,0,4.52,7,0,7S0,28.54,4.51,28.54Z"/><path d="M3.38,24.76c4.51,0,4.51,7,0,7S-1.13,24.76,3.38,24.76Z"/><path d="M1.09,21.19l.2-.38a3.52,3.52,0,0,1,4.78-1.25,3.58,3.58,0,0,1,1.26,4.79l-.19.37A3.53,3.53,0,0,1,2.35,26,3.58,3.58,0,0,1,1.09,21.19Z"/><path d="M1.49,19.38l.18-.57a3.73,3.73,0,0,1,1.61-2.09A3.59,3.59,0,0,1,6,16.37a3.54,3.54,0,0,1,2.44,4.31l-.18.56a3.68,3.68,0,0,1-1.61,2.1,3.61,3.61,0,0,1-2.69.35A3.56,3.56,0,0,1,1.49,19.38Z"/><path d="M1.58,15.6v-.38a3.54,3.54,0,0,1,3.5-3.5,3.56,3.56,0,0,1,3.5,3.5v.38a3.54,3.54,0,0,1-3.5,3.5A3.57,3.57,0,0,1,1.58,15.6Z"/><path d="M4.89,7.18c4.51,0,4.51,7,0,7S.38,7.18,4.89,7.18Z"/><path d="M1.77,7.48V7.29a3.54,3.54,0,0,1,3.5-3.5,3.56,3.56,0,0,1,3.5,3.5v.19A3.54,3.54,0,0,1,5.27,11,3.56,3.56,0,0,1,1.77,7.48Z"/><path d="M6,.19c4.5,0,4.51,7,0,7S1.48.19,6,.19Z"/><path d="M10,35.34c4.5,0,4.51,7,0,7S5.48,35.34,10,35.34Z"/><path d="M6.59,28.54c4.51,0,4.52,7,0,7S2.08,28.54,6.59,28.54Z"/><path d="M8.48,22.48c4.51,0,4.51,7,0,7S4,22.48,8.48,22.48Z"/><path d="M8.48,20.22c4.51,0,4.51,7,0,7S4,20.22,8.48,20.22Z"/><path d="M14.91,15.69c4.5,0,4.51,7,0,7S10.4,15.69,14.91,15.69Z"/><path d="M9.81,11c4.5,0,4.51,7,0,7S5.29,11,9.81,11Z"/><path d="M10.56,4.35c4.51,0,4.51,7,0,7S6.05,4.35,10.56,4.35Z"/><path d="M10.56,0c4.51,0,4.51,7,0,7S6.05,0,10.56,0Z"/><path d="M12.83,31.36c2.57,0,2.58,4,0,4S10.25,31.36,12.83,31.36Z"/><path d="M13,29.09c2.57,0,2.58,4,0,4S10.42,29.09,13,29.09Z"/><path d="M13.1,28.48v-.19a2,2,0,0,1,4,0v.19a2,2,0,0,1-4,0Z"/><path d="M15.1,23.61c2.57,0,2.58,4,0,4S12.52,23.61,15.1,23.61Z"/><path d="M16.61,38.41a1,1,0,1,1-1,1A1,1,0,0,1,16.61,38.41Z"/><path d="M21.71,32.93a1,1,0,1,1-1,1A1,1,0,0,1,21.71,32.93Z"/><path d="M16.85,40.54v.38a1,1,0,0,1-2,0v-.38a1,1,0,0,1,2,0Z"/><path d="M16.48,44.7v.19a1,1,0,0,1-2,0V44.7a1,1,0,0,1,2,0Z"/><path d="M15.48,47.48a1,1,0,1,1-1,1A1,1,0,0,1,15.48,47.48Z"/><path d="M10.56,47.48a1,1,0,1,1-1,1A1,1,0,0,1,10.56,47.48Z"/><path d="M10.37,44.83a1,1,0,1,1-1,1A1,1,0,0,1,10.37,44.83Z"/><path d="M7.35,43.32a1,1,0,1,1-1,1A1,1,0,0,1,7.35,43.32Z"/><path d="M11.88,42.38h.38a1,1,0,0,1,0,2h-.38a1,1,0,0,1,0-2Z"/><path d="M13.28,38.48l.57-1.32a1,1,0,0,1,1.37-.36h0a1,1,0,0,1,.36,1.37h0L15,39.48a1,1,0,0,1-1.37.36h0A1,1,0,0,1,13.28,38.48Z"/><path d="M18.44,30.15V30a1,1,0,0,1,2,0v.19a1,1,0,0,1-2,0Z"/><path d="M20.68,24.55l.19-.38c.57-1.15,2.3-.14,1.72,1l-.19.38C21.83,26.7,20.1,25.69,20.68,24.55Z"/><path d="M22.13,20.1a2.5,2.5,0,0,1-.84-1.86,1,1,0,0,1,2,0,.56.56,0,0,0,.25.44,1,1,0,0,1,0,1.41h0A1,1,0,0,1,22.13,20.1Z"/><path d="M20.32,16.07l-.54-1.71c-.38-1.23,1.55-1.76,1.93-.53l.54,1.71C22.63,16.77,20.7,17.3,20.32,16.07Z"/><path d="M19.44,12.48h-.19a1,1,0,0,1,0-2h.19a1,1,0,0,1,0,2Z"/><path d="M17.64,8l-.19-.38c-.58-1.15,1.15-2.16,1.72-1l.19.38C19.94,8.13,18.21,9.14,17.64,8Z"/><path d="M15.8,1.61V1.05a1,1,0,0,1,2,0v.56a1,1,0,0,1-2,0Z"/><path d="M14.34.05a1,1,0,1,1-1,1A1,1,0,0,1,14.34.05Z"/><path d="M14.34,8.17a1,1,0,1,1-1,1A1,1,0,0,1,14.34,8.17Z"/><path d="M17.13,13a2,2,0,0,1,1,1.64,1,1,0,1,1-2,0c0,.13.19.2,0,.08C15,14.15,16,12.43,17.13,13Z"/><path d="M17.37,18.19a1,1,0,1,1-1,1A1,1,0,0,1,17.37,18.19Z"/><path d="M18.12,21a1,1,0,1,1-1,1A1,1,0,0,1,18.12,21Z"/><path d="M19,24.54l.19.38c.58,1.15-1.15,2.16-1.72,1l-.19-.38C16.7,24.39,18.43,23.38,19,24.54Z"/><path d="M17.93,33.48a1,1,0,1,1-1,1A1,1,0,0,1,17.93,33.48Z"/><path d="M24.64,33.43l.57-.94a1,1,0,0,1,1.72,1l-.56,1a1,1,0,0,1-1.73-1Z"/><path d="M34.88,19.76v-.19a1,1,0,0,1,2,0v.19a1,1,0,0,1-2,0Z"/><path d="M24,10.25a1,1,0,1,1-1,1A1,1,0,0,1,24,10.25Z"/><path d="M22.85,20.48a1,1,0,1,1-1,1A1,1,0,0,1,22.85,20.48Z"/><path d="M18.24,27.58l.57.56c.93.89-.48,2.3-1.41,1.41L16.82,29C15.89,28.1,17.31,26.69,18.24,27.58Z"/></pattern><linearGradient id="linear-gradient-2" x1="239.48" y1="-126.02" x2="239.48" y2="-79.95" xlink:href="#linear-gradient"/></defs><g id="Layer_2" data-name="Layer 2"><g id="ae37f038-3a9e-4b82-ad68-fc94ba16af2a"><g class="cls-2"><ellipse class="cls-3" cx="218.71" cy="165.37" rx="5.19" ry="6.8"/><path class="cls-3" d="M222.82,136.29a8.21,8.21,0,0,0,1.09-4.16c0-3.76-2.33-6.8-5.2-6.8s-5.21,3-5.21,6.81a8.25,8.25,0,0,0,1.09,4.15,8.48,8.48,0,0,0,0,8.31,8.48,8.48,0,0,0,0,8.31,8.19,8.19,0,0,0-1.09,4.16c0,3.75,2.33,6.79,5.2,6.79s5.19-3,5.19-6.79a8.18,8.18,0,0,0-1.08-4.16,8.53,8.53,0,0,0,0-8.31,8.53,8.53,0,0,0,0-8.31Z"/><ellipse class="cls-3" cx="218.71" cy="123.83" rx="5.19" ry="6.8"/><ellipse class="cls-3" cx="218.71" cy="115.52" rx="5.19" ry="6.8"/><path class="cls-4" d="M199.28,58.67a25.09,25.09,0,0,1-1.94-2.85L211,53.58l-14.76.11A24.92,24.92,0,0,1,195.78,34l19.79,10.27L197.32,30.83a24.88,24.88,0,0,1,43.25,24.6,26.18,26.18,0,0,1-2.19,3.23,24.43,24.43,0,0,1,2.84,4.53L223.5,72.42l18.89-6.34a24.92,24.92,0,0,1-4,23.36,24.87,24.87,0,1,1-39.1,0,24.87,24.87,0,0,1,0-30.76Z"/><path class="cls-5" d="M243.7,74.05a24.77,24.77,0,0,1-5.32,15.37,24.87,24.87,0,1,1-39.1,0C195.94,85.19,243.7,71.25,243.7,74.05Z"/></g><g class="cls-2"><ellipse class="cls-3" cx="279.32" cy="150.83" rx="3.88" ry="5.08"/><path class="cls-3" d="M282.39,129.1a6.11,6.11,0,0,0,.81-3.1c0-2.8-1.74-5.08-3.88-5.08s-3.88,2.28-3.88,5.08a6.11,6.11,0,0,0,.81,3.1,6.36,6.36,0,0,0,0,6.21,6.36,6.36,0,0,0,0,6.21,6.16,6.16,0,0,0-.81,3.1c0,2.81,1.74,5.09,3.88,5.09s3.88-2.28,3.88-5.09a6.16,6.16,0,0,0-.81-3.1,6.41,6.41,0,0,0,0-6.21A6.41,6.41,0,0,0,282.39,129.1Z"/><ellipse class="cls-3" cx="279.32" cy="119.79" rx="3.88" ry="5.08"/><ellipse class="cls-3" cx="279.32" cy="113.58" rx="3.88" ry="5.08"/><path class="cls-4" d="M264.8,71.1A17.36,17.36,0,0,1,263.35,69l10.2-1.67-11,.08a18.66,18.66,0,0,1-.35-14.73L277,60.33l-13.64-10a18.59,18.59,0,0,1,32.21,18.57A17.88,17.88,0,0,1,294,71.09a19.29,19.29,0,0,1,2.13,3.39l-13.23,6.88L297,76.62a18.63,18.63,0,0,1-3,17.46,18.59,18.59,0,1,1-29.2,0,18.61,18.61,0,0,1,0-23Z"/><path class="cls-5" d="M298,82.59a18.43,18.43,0,0,1-4,11.49,18.58,18.58,0,1,1-29.19,0C262.32,90.92,298,80.51,298,82.59Z"/></g><g class="cls-2"><ellipse class="cls-3" cx="473.8" cy="147.12" rx="5.19" ry="6.8"/><path class="cls-3" d="M469.69,118a8.3,8.3,0,0,1-1.08-4.16c0-3.75,2.33-6.8,5.19-6.8s5.2,3,5.2,6.8a8.31,8.31,0,0,1-1.09,4.16,8.46,8.46,0,0,1,0,8.3,8.48,8.48,0,0,1,0,8.31,8.21,8.21,0,0,1,1.09,4.16c0,3.75-2.33,6.8-5.2,6.8s-5.19-3.05-5.19-6.8a8.2,8.2,0,0,1,1.08-4.16,8.53,8.53,0,0,1,0-8.31A8.51,8.51,0,0,1,469.69,118Z"/><ellipse class="cls-3" cx="473.8" cy="105.58" rx="5.19" ry="6.8"/><ellipse class="cls-3" cx="473.8" cy="97.28" rx="5.19" ry="6.8"/><path class="cls-4" d="M493.24,40.42a23,23,0,0,0,1.93-2.85l-13.64-2.24,14.76.11a24.91,24.91,0,0,0,.45-19.71L477,26,495.2,12.58a24.88,24.88,0,1,0-41.06,27.83,24.77,24.77,0,0,0-2.84,4.53L469,54.17l-18.88-6.34a24.89,24.89,0,0,0,4,23.36,24.87,24.87,0,1,0,39.1,0,24.87,24.87,0,0,0,0-30.76Z"/><path class="cls-5" d="M448.82,55.8a24.79,24.79,0,0,0,5.32,15.38,24.87,24.87,0,1,0,39.1,0C496.57,66.94,448.82,53,448.82,55.8Z"/></g><g class="cls-2"><ellipse class="cls-3" cx="423.69" cy="148.1" rx="3.88" ry="5.08"/><path class="cls-3" d="M420.62,126.37a6.16,6.16,0,0,1-.81-3.1c0-2.81,1.74-5.09,3.88-5.09s3.88,2.28,3.88,5.09a6.16,6.16,0,0,1-.81,3.1,6.36,6.36,0,0,1,0,6.21,6.36,6.36,0,0,1,0,6.21,6.11,6.11,0,0,1,.81,3.1c0,2.8-1.74,5.08-3.88,5.08s-3.88-2.28-3.88-5.08a6.11,6.11,0,0,1,.81-3.1,6.41,6.41,0,0,1,0-6.21A6.41,6.41,0,0,1,420.62,126.37Z"/><ellipse class="cls-3" cx="423.69" cy="117.06" rx="3.88" ry="5.08"/><ellipse class="cls-3" cx="423.69" cy="110.85" rx="3.88" ry="5.08"/><path class="cls-4" d="M438.21,68.36a18,18,0,0,0,1.45-2.12l-10.2-1.68,11,.08a18.62,18.62,0,0,0,.35-14.73l-14.79,7.68,13.64-10A18.59,18.59,0,1,0,409,68.36a18.58,18.58,0,0,0-2.13,3.39l13.23,6.87L406,73.89a18.6,18.6,0,0,0,3,17.45,18.59,18.59,0,1,0,29.2,0,18.59,18.59,0,0,0,0-23Z"/><path class="cls-5" d="M405,79.85a18.43,18.43,0,0,0,4,11.49,18.58,18.58,0,1,0,29.19,0C440.69,88.18,405,77.77,405,79.85Z"/></g><g class="cls-2"><ellipse class="cls-3" cx="28.1" cy="147.12" rx="5.19" ry="6.8"/><path class="cls-3" d="M32.2,118a8.21,8.21,0,0,0,1.09-4.16c0-3.75-2.33-6.8-5.19-6.8s-5.19,3-5.19,6.8A8.1,8.1,0,0,0,24,118a8.51,8.51,0,0,0,0,8.3,8.53,8.53,0,0,0,0,8.31,8.1,8.1,0,0,0-1.08,4.16c0,3.75,2.32,6.8,5.19,6.8s5.2-3,5.2-6.79a8.2,8.2,0,0,0-1.08-4.16,8.53,8.53,0,0,0,0-8.31,8.51,8.51,0,0,0,0-8.3Z"/><ellipse class="cls-3" cx="28.1" cy="105.58" rx="5.19" ry="6.8"/><ellipse class="cls-3" cx="28.1" cy="97.28" rx="5.19" ry="6.8"/><path class="cls-4" d="M8.67,40.42a25.09,25.09,0,0,1-1.94-2.85l13.65-2.24-14.77.13a24.89,24.89,0,0,1-.45-19.7L25,26,6.71,12.6A24.87,24.87,0,1,1,47.76,40.43,24.85,24.85,0,0,1,50.6,45l-17.72,9.2,18.89-6.34a24.92,24.92,0,0,1-4,23.36,24.87,24.87,0,1,1-39.1,0,24.87,24.87,0,0,1,0-30.76Z"/><path class="cls-5" d="M53.08,55.8a24.79,24.79,0,0,1-5.32,15.38,24.87,24.87,0,1,1-39.1,0C5.32,66.94,53.08,53,53.08,55.8Z"/></g><g class="cls-2"><ellipse class="cls-3" cx="78.21" cy="148.1" rx="3.88" ry="5.08"/><path class="cls-3" d="M81.28,126.37a6.16,6.16,0,0,0,.81-3.1c0-2.81-1.73-5.09-3.88-5.09s-3.88,2.28-3.88,5.09a6.16,6.16,0,0,0,.81,3.1,6.36,6.36,0,0,0,0,6.21,6.36,6.36,0,0,0,0,6.21,6.11,6.11,0,0,0-.81,3.1c0,2.8,1.74,5.08,3.88,5.08s3.88-2.28,3.88-5.08a6.11,6.11,0,0,0-.81-3.1,6.36,6.36,0,0,0,0-6.21A6.36,6.36,0,0,0,81.28,126.37Z"/><ellipse class="cls-3" cx="78.21" cy="117.06" rx="3.88" ry="5.08"/><ellipse class="cls-3" cx="78.21" cy="110.85" rx="3.88" ry="5.08"/><path class="cls-4" d="M63.69,68.36a16.9,16.9,0,0,1-1.45-2.12l10.2-1.68-11,.08a18.62,18.62,0,0,1-.36-14.73l14.8,7.68-13.65-10A18.59,18.59,0,1,1,92.9,68.36,18,18,0,0,1,95,71.75L81.79,78.62,95.9,73.89a18.58,18.58,0,0,1-3,17.45,18.59,18.59,0,1,1-29.2,0,18.57,18.57,0,0,1,0-23Z"/><path class="cls-5" d="M96.88,79.85a18.49,18.49,0,0,1-4,11.49,18.59,18.59,0,1,1-29.2,0C61.2,88.18,96.88,77.77,96.88,79.85Z"/></g><ellipse class="cls-6" cx="250" cy="225.14" rx="250" ry="4.04"/><ellipse class="cls-6" cx="250" cy="258.32" rx="250" ry="4.04"/><ellipse class="cls-6" cx="250" cy="155.87" rx="250" ry="4.04"/><ellipse class="cls-6" cx="250" cy="190.5" rx="250" ry="4.04"/><path class="cls-6" d="M369,50.52a8.33,8.33,0,0,0-4.83.53,7.17,7.17,0,0,1-5.81,0,8.2,8.2,0,0,0-6.85.13,4.19,4.19,0,0,1-2,.49c-2.78,0-5.08-2.79-5.56-6.47a5.4,5.4,0,0,0,1.37-1.49,7.79,7.79,0,0,1,13.9-.05,5.34,5.34,0,0,0,4.6,2.53h.08C366.14,46.16,368.05,47.93,369,50.52Z"/><path class="cls-6" d="M377.42,39l-4.48,2.84,2.74-4.94a4.42,4.42,0,0,0-2.71-1h-.08a4.64,4.64,0,0,1-.91-.06l-1.54,1,.65-1.19a5.38,5.38,0,0,1-2.66-2l-2.74,1.72,1.72-3.12a8,8,0,0,0-6.09-3.08,8.35,8.35,0,0,0-7,4.3,5.19,5.19,0,0,1-4.6,2.48h-.15c-3.12,0-5.65,3.54-5.65,7.9s2.53,7.9,5.65,7.9a4.19,4.19,0,0,0,2-.49,8.16,8.16,0,0,1,6.85-.14,7.09,7.09,0,0,0,5.81,0,8.15,8.15,0,0,1,6.78.14,4.38,4.38,0,0,0,1.94.48c3.12,0,5.65-3.54,5.65-7.9A10,10,0,0,0,377.42,39Z"/><path class="cls-6" d="M178.49,48.05a5.88,5.88,0,0,0-3.39.37,5,5,0,0,1-4.06,0,5.69,5.69,0,0,0-4.79.1,3.08,3.08,0,0,1-1.36.34c-1.94,0-3.56-2-3.9-4.53a3.92,3.92,0,0,0,1-1,5.45,5.45,0,0,1,9.73,0A3.76,3.76,0,0,0,174.92,45H175C176.51,45,177.84,46.25,178.49,48.05Z"/><path class="cls-6" d="M184.4,40l-3.13,2,1.9-3.46a3.1,3.1,0,0,0-1.89-.68h-.06a2.89,2.89,0,0,1-.65-.05l-1.06.68.46-.83a3.74,3.74,0,0,1-1.86-1.41l-1.91,1.2,1.21-2.18a5.61,5.61,0,0,0-4.26-2.16,5.84,5.84,0,0,0-4.88,3,3.63,3.63,0,0,1-3.22,1.73h-.11c-2.18,0-3.95,2.48-3.95,5.53s1.77,5.53,3.95,5.53a3,3,0,0,0,1.37-.34,5.7,5.7,0,0,1,4.78-.1,5,5,0,0,0,2,.46,5.05,5.05,0,0,0,2-.43,5.72,5.72,0,0,1,4.74.09,3,3,0,0,0,1.37.34c2.18,0,3.95-2.48,3.95-5.53A7,7,0,0,0,184.4,40Z"/><path class="cls-6" d="M123,83.82a5.92,5.92,0,0,1,3.38.37,5,5,0,0,0,4.07,0,5.73,5.73,0,0,1,4.79.09,2.85,2.85,0,0,0,1.37.35c1.94,0,3.55-2,3.88-4.54a3.67,3.67,0,0,1-1-1,5.89,5.89,0,0,0-4.88-3,5.81,5.81,0,0,0-4.86,3,3.76,3.76,0,0,1-3.22,1.77h0C125,80.8,123.63,82,123,83.82Z"/><path class="cls-6" d="M117.08,75.75l3.13,2-1.9-3.46a3.11,3.11,0,0,1,1.9-.68h.05a3.63,3.63,0,0,0,.65,0l1.06.67-.46-.82A3.74,3.74,0,0,0,123.37,72l1.9,1.2L124.09,71a5.6,5.6,0,0,1,4.26-2.16,5.87,5.87,0,0,1,4.88,3,3.63,3.63,0,0,0,3.22,1.74h.11c2.18,0,3.95,2.48,3.95,5.53s-1.77,5.53-3.95,5.53a3,3,0,0,1-1.37-.34,5.73,5.73,0,0,0-4.79-.1,5,5,0,0,1-2,.46,5.07,5.07,0,0,1-2-.43,5.72,5.72,0,0,0-4.74.09,3,3,0,0,1-1.37.34c-2.18,0-4-2.47-4-5.53A7,7,0,0,1,117.08,75.75Z"/><path class="cls-7" d="M303.06,223.83c1.19-2.21-.16-4.91-1.71-6.88s-3.45-4-3.41-6.52c.06-3.6,3.88-5.73,6.94-7.63a34.55,34.55,0,0,0,6.22-5,9.29,9.29,0,0,0,1.92-2.57,10.43,10.43,0,0,0,.57-4.56q-.19-7.71-.76-15.4"/><path class="cls-4" d="M318.64,175a5.62,5.62,0,0,0-2.81-4.6l-1.26,2.49,0-3a5.61,5.61,0,1,0,3.8,7A5.77,5.77,0,0,0,318.64,175Z"/><path class="cls-4" d="M308.62,213a5.61,5.61,0,0,1-10.6-2.29,5.41,5.41,0,0,1,.36-2.28,5.62,5.62,0,0,1,10.49.06l-3.51,2.86,3.86-.91A5.57,5.57,0,0,1,308.62,213Z"/><path class="cls-4" d="M305.84,202.1a5.62,5.62,0,0,1-1.78-11l0,2.32,1.28-2.52h0a5.62,5.62,0,0,1,.52,11.22Z"/><path class="cls-4" d="M319.48,193A5.62,5.62,0,1,1,322,182.54l-1,2.73,2-2a5.61,5.61,0,0,1-3.53,9.75Z"/><path class="cls-5" d="M317.88,176.49c-1.3.14-2.56.54-3.86.63a4.18,4.18,0,0,1-3.55-1.25,17.13,17.13,0,0,1-1-1.82,4,4,0,0,0-1.41-1.33,5.61,5.61,0,1,0,10,5.1,5.46,5.46,0,0,0,.49-1.37C318.3,176.45,318.09,176.47,317.88,176.49Z"/><path class="cls-5" d="M319.48,193a5.63,5.63,0,0,1-5.88-5.35,5.55,5.55,0,0,1,.54-2.66,4,4,0,0,1,1.12,1.13,19.51,19.51,0,0,0,1.12,1.86,4.61,4.61,0,0,0,3.72,1.3c1.36-.07,2.67-.46,4-.57.19,0,.37,0,.57,0A5.62,5.62,0,0,1,319.48,193Z"/><path class="cls-5" d="M305.84,202.1a5.6,5.6,0,0,1-5.38-7.9,4.6,4.6,0,0,1,1.19,1.14,18.89,18.89,0,0,0,1.21,1.89,5.12,5.12,0,0,0,4,1.37c1.43-.06,2.74-.37,4.1-.46A5.6,5.6,0,0,1,305.84,202.1Z"/><path class="cls-5" d="M308.62,213a5.61,5.61,0,0,1-10.6-2.29,5.41,5.41,0,0,1,.36-2.28,5.87,5.87,0,0,1,1.23,1.1c.54.65.89,1.37,1.51,2a7,7,0,0,0,4.65,1.63A24.75,24.75,0,0,0,308.62,213Z"/><path class="cls-7" d="M24.78,191c1.19-2.21-.16-4.91-1.71-6.88s-3.45-4-3.41-6.51c.06-3.6,3.88-5.73,6.93-7.64a33.85,33.85,0,0,0,6.23-5,9.21,9.21,0,0,0,1.91-2.56,10.48,10.48,0,0,0,.58-4.57q-.21-7.7-.77-15.4"/><path class="cls-4" d="M40.35,142.15a5.65,5.65,0,0,0-2.8-4.61L36.29,140l0-3a5.61,5.61,0,1,0,3.8,7,5.73,5.73,0,0,0,.22-1.84Z"/><path class="cls-4" d="M30.33,180.16a5.62,5.62,0,0,1-10.6-2.28,5.37,5.37,0,0,1,.37-2.28,5.62,5.62,0,0,1,10.49.06l-3.51,2.85,3.86-.91A5.55,5.55,0,0,1,30.33,180.16Z"/><path class="cls-4" d="M27.56,169.26a5.62,5.62,0,0,1-1.78-11l0,2.31L27,158h0a5.62,5.62,0,0,1,.53,11.23Z"/><path class="cls-4" d="M41.2,160.18a5.62,5.62,0,1,1,2.48-10.49l-1,2.74,2-2a5.62,5.62,0,0,1-3.53,9.75Z"/><path class="cls-5" d="M39.59,143.64c-1.29.15-2.55.55-3.86.63A4.16,4.16,0,0,1,32.19,143a16.55,16.55,0,0,1-1-1.83,4.11,4.11,0,0,0-1.42-1.33,5.61,5.61,0,1,0,10,5.11,5.29,5.29,0,0,0,.49-1.38Z"/><path class="cls-5" d="M41.2,160.18a5.61,5.61,0,0,1-5.88-5.34,5.7,5.7,0,0,1,.53-2.67A4.19,4.19,0,0,1,37,153.3q.51,1,1.11,1.86a4.58,4.58,0,0,0,3.73,1.3c1.36-.07,2.66-.46,4-.57l.57,0A5.61,5.61,0,0,1,41.2,160.18Z"/><path class="cls-5" d="M27.56,169.26a5.63,5.63,0,0,1-5.39-7.91,4.45,4.45,0,0,1,1.19,1.14,19.65,19.65,0,0,0,1.22,1.89,5.05,5.05,0,0,0,4,1.37c1.44-.06,2.74-.37,4.11-.45A5.64,5.64,0,0,1,27.56,169.26Z"/><path class="cls-5" d="M30.33,180.16a5.62,5.62,0,0,1-10.6-2.28,5.37,5.37,0,0,1,.37-2.28,5.58,5.58,0,0,1,1.23,1.1c.53.64.88,1.36,1.5,2a7,7,0,0,0,4.65,1.63A22.59,22.59,0,0,0,30.33,180.16Z"/><path class="cls-7" d="M210.09,153.4c-1.19-2.2.16-4.9,1.72-6.87s3.44-4,3.4-6.52c-.05-3.6-3.88-5.73-6.93-7.63a33.85,33.85,0,0,1-6.23-5,9.07,9.07,0,0,1-1.91-2.56,10.6,10.6,0,0,1-.58-4.56q.21-7.71.76-15.41"/><path class="cls-4" d="M194.52,104.57a5.61,5.61,0,0,1,2.8-4.6l1.26,2.49,0-3a5.8,5.8,0,0,1,1.85-.23,5.62,5.62,0,1,1-5.87,5.35Z"/><path class="cls-4" d="M204.53,142.59a5.64,5.64,0,1,0-.26-4.53l3.5,2.86-3.86-.91A5.67,5.67,0,0,0,204.53,142.59Z"/><path class="cls-4" d="M207.31,131.68a5.61,5.61,0,0,0,1.78-11l0,2.31-1.27-2.52h0a5.62,5.62,0,1,0-.54,11.22Z"/><path class="cls-4" d="M193.68,122.6a5.62,5.62,0,1,0-2.49-10.49l1,2.73-2.05-2a5.52,5.52,0,0,0-1.82,3.87,5.4,5.4,0,0,0,.14,1.55A5.63,5.63,0,0,0,193.68,122.6Z"/><path class="cls-5" d="M195.28,106.07c1.29.14,2.55.54,3.85.63a4.24,4.24,0,0,0,3.56-1.24,18.25,18.25,0,0,0,1-1.83,4.11,4.11,0,0,1,1.42-1.33A5.61,5.61,0,1,1,194.65,106C194.85,106,195.06,106.05,195.28,106.07Z"/><path class="cls-5" d="M193.68,122.6a5.62,5.62,0,0,0,5.34-8,4.05,4.05,0,0,0-1.13,1.13,19.51,19.51,0,0,1-1.12,1.86,4.57,4.57,0,0,1-3.72,1.3c-1.35-.07-2.66-.46-4-.57-.19,0-.38,0-.57,0A5.61,5.61,0,0,0,193.68,122.6Z"/><path class="cls-5" d="M207.31,131.68a5.61,5.61,0,0,0,5.87-5.33,5.51,5.51,0,0,0-.48-2.57,4.31,4.31,0,0,0-1.19,1.14,19,19,0,0,1-1.22,1.89,5.11,5.11,0,0,1-4,1.37c-1.43-.06-2.73-.37-4.1-.46A5.59,5.59,0,0,0,207.31,131.68Z"/><path class="cls-5" d="M204.53,142.59A5.62,5.62,0,0,0,214.78,138a5.66,5.66,0,0,0-1.24,1.1c-.53.65-.91,1.37-1.5,2a7.05,7.05,0,0,1-4.65,1.63A24.8,24.8,0,0,1,204.53,142.59Z"/><circle class="cls-3" cx="355.72" cy="108.83" r="45.6"/><path class="cls-4" d="M375.29,120.59a34.21,34.21,0,0,0-7.3-4.88c-2.18-1-3-1-4.53.09-1.29.91-2.12,1.79-3.6,1.47s-4.41-2.54-7.24-5.36-5-5.73-5.35-7.23.55-2.32,1.48-3.61c1.11-1.55,1.14-2.35.08-4.53a34.59,34.59,0,0,0-4.88-7.3c-1.6-1.6-1.95-1.25-2.82-.92a16.87,16.87,0,0,0-2.59,1.37,7.8,7.8,0,0,0-3.1,3.28c-.63,1.34-1.33,3.81,2.3,10.28a57.59,57.59,0,0,0,10.08,13.45h0a57.68,57.68,0,0,0,13.49,10.1c6.47,3.65,8.95,2.92,10.28,2.3a7.69,7.69,0,0,0,3.28-3.1,16.87,16.87,0,0,0,1.37-2.59C376.54,122.54,376.89,122.18,375.29,120.59Z"/><path class="cls-5" d="M355.72,63.23a45.62,45.62,0,1,0,45.59,45.64v0A45.62,45.62,0,0,0,355.72,63.23Zm0,85.14a39.54,39.54,0,1,1,39.54-39.54h0a39.55,39.55,0,0,1-39.54,39.54Z"/><circle class="cls-3" cx="250.95" cy="178.09" r="45.6"/><path class="cls-4" d="M276.88,164.31l-13.65,13.9a.24.24,0,0,0,0,.34h0l9.58,10.19a1.64,1.64,0,0,1,0,2.33,1.62,1.62,0,0,1-1.15.48,1.65,1.65,0,0,1-1.17-.48L261,180.93a.27.27,0,0,0-.37,0l-2.32,2.34a10.14,10.14,0,0,1-7.3,3.07,10.42,10.42,0,0,1-7.42-3.15l-2.24-2.28a.25.25,0,0,0-.36,0L231.43,191a1.64,1.64,0,0,1-2.33,0h0a1.64,1.64,0,0,1,0-2.32h0l9.55-10.16a.3.3,0,0,0,0-.36L225,164.29a.24.24,0,0,0-.35,0,.25.25,0,0,0-.08.18v27.8a4.07,4.07,0,0,0,4.06,4h44.65a4.07,4.07,0,0,0,4.05-4V164.49a.25.25,0,0,0-.24-.26A.3.3,0,0,0,276.88,164.31Z"/><path class="cls-4" d="M251,183.05a6.94,6.94,0,0,0,5-2.06l19.89-20.24a4,4,0,0,0-2.51-.91H228.63a3.89,3.89,0,0,0-2.51.91L246,181A6.85,6.85,0,0,0,251,183.05Z"/><path class="cls-5" d="M250.37,132.49A45.63,45.63,0,1,0,296,178.14v0A45.62,45.62,0,0,0,250.37,132.49Zm0,85.14a39.54,39.54,0,1,1,39.54-39.54h0A39.54,39.54,0,0,1,250.37,217.63Z"/><circle class="cls-3" cx="142.72" cy="144.04" r="45.6"/><path class="cls-4" d="M142.72,122.22l-18.18,41.94,1.7,1.7,16.49-7.28,16.49,7.28,1.69-1.7Z"/><path class="cls-5" d="M142.72,98.42a45.62,45.62,0,1,0,45.6,45.64v0A45.62,45.62,0,0,0,142.72,98.42Zm0,85.14A39.54,39.54,0,1,1,182.26,144v0a39.54,39.54,0,0,1-39.54,39.54Z"/><path class="cls-8" d="M359.91,201.47c-.41-1-.83-2-1.27-3a8.85,8.85,0,0,0-1.56-2.69,2.65,2.65,0,0,0-.91-.68,4,4,0,0,0-1.19-.24,9,9,0,0,0-1.87-.05c-.24-.07-.51-.17-.78-.28a6.51,6.51,0,0,0,4.85-6v-.28a6.49,6.49,0,0,0-6.47-6.53h0a6.39,6.39,0,0,0-3.4,1,6.09,6.09,0,0,0-6.84,3.3,7.52,7.52,0,0,0-2.33,5.61v.29c.12,3.54,2.41,6.39,5.3,6.67a3.16,3.16,0,0,0-.84.56,5.26,5.26,0,0,0-1.13,3.44l-.06.92-1.54.54a.3.3,0,0,0-.17.36.3.3,0,0,0,.1.14l1.47,1v.26a1,1,0,0,0,0,.29,2.1,2.1,0,0,0-.57.81,3.7,3.7,0,0,0-.13,1.48l0,1.27a10.39,10.39,0,0,0,.39,2.83c.19.57,1,1.93,1.62,1.94a59.51,59.51,0,0,0-.7,7.8c-.07.07.12.14.46.19.33,2.52,1.4,9.58,3.3,12.69a27,27,0,0,1,.72,3.08s.54,6.71,1.26,8.71a44,44,0,0,1,1.22,7.09.71.71,0,0,0-.5.52c-.36,1.09-2.7,2.74-2.7,2.74a11.54,11.54,0,0,0-2,1.29c-.73.66-.7,1.26,2.56.89,6.29-.73,7.37-2.74,7.37-2.74s-.1-.34-.25-.78a8.11,8.11,0,0,0-.83-1.94c-.09-.09-.18.06-.29.28a39.35,39.35,0,0,1-.43-8.81,14.26,14.26,0,0,0-.72-5.26,9.94,9.94,0,0,1,0-3.44c.36-1.45-1.43-8.53-1.43-8.53l-1-5.21a1.54,1.54,0,0,1,.28.61l0,.11,0,.15a.27.27,0,0,0,.07.14c.7,2.92,2.63,11,2.63,12.19,0,1.45,1.8,5.08,1.8,5.08s.71,6,2,8.34a12.15,12.15,0,0,1,.94,5.58h0a5.2,5.2,0,0,1-.58,1.85,4.64,4.64,0,0,0-.68,1.18l0,.09s-.54,1.09-.18,1.27a8.73,8.73,0,0,0,4.32.54s.72-.91.72-1.26,0-.44-.08-.65c-.14-.86-.38-2.21-.39-2.22a6.25,6.25,0,0,0-.45-2.21l-.19-5.08a23.39,23.39,0,0,0-1.25-10.16s-.92-3.26-.72-4.17-.36-10.52-.36-10.52l-.06-.13a10.68,10.68,0,0,1,.06-2,27.12,27.12,0,0,0-.72-6.89,5.9,5.9,0,0,1-.26-1.5c0-.38.17-1.49.34-2.87a52.37,52.37,0,0,0,5.3-.45.64.64,0,0,0,.45-.19.62.62,0,0,0,.11-.37C362,206.65,361,204,359.91,201.47Zm-3.61,5.75c.18-1.3.38-2.56.58-3.49l0,.08a24.29,24.29,0,0,1,.87,2.87A10.1,10.1,0,0,1,356.3,207.22Z"/><path class="cls-9" d="M342.32,221.91s1.08,9.68,3.41,13.44a27,27,0,0,1,.72,3.05S347,245,347.7,247a47.15,47.15,0,0,1,1.26,7.35s2.5,2.87,3.4.54a38.4,38.4,0,0,1-.54-9.33,14.08,14.08,0,0,0-.71-5.2,9.71,9.71,0,0,1,0-3.4c.35-1.44-1.44-8.43-1.44-8.43l-1.43-7Z"/><path class="cls-10" d="M353.62,256.69s-1.08,2-7.35,2.69c-3.26.37-3.28-.22-2.55-.88a11.73,11.73,0,0,1,2-1.27s2.33-1.62,2.69-2.69,1.61-.18,1.61-.18c1.79,2.69,2.16-.72,2.51-.36a8,8,0,0,1,.83,1.92C353.52,256.35,353.62,256.69,353.62,256.69Z"/><path class="cls-5" d="M353.62,256.69s-1.08,2-7.35,2.69c-3.26.37-3.28-.22-2.55-.88.51.33,1.54.46,3.62-.38,3-1.22,5.16-1.93,6-2.2C353.52,256.35,353.62,256.69,353.62,256.69Z"/><path class="cls-5" d="M351.82,245.57a14.08,14.08,0,0,0-.71-5.2,9.71,9.71,0,0,1,0-3.4c.35-1.44-1.44-8.43-1.44-8.43l-1.43-7-1.24.07,1.42,6.92s1.79,7,1.43,8.43a9.71,9.71,0,0,0,0,3.4,13.51,13.51,0,0,1,.72,5.2,37.42,37.42,0,0,0,.54,9.33,1.62,1.62,0,0,1-.52.74,1.17,1.17,0,0,0,1.77-.74A38.4,38.4,0,0,1,351.82,245.57Z"/><path class="cls-3" d="M350.66,182.55a6.36,6.36,0,0,0-3.39,1,6.08,6.08,0,0,0-6.84,3.26,7.4,7.4,0,0,0-2.32,5.55c0,3.81,2.57,6.9,5.73,6.9a5.81,5.81,0,0,0,5.2-4,6.24,6.24,0,0,0,1.61.21,6.46,6.46,0,0,0,0-12.91Z"/><path class="cls-9" d="M356,222.8l.54,1.44s.54,9.5.35,10.4.72,4.1.72,4.1a23,23,0,0,1,1.26,10l.18,5s.71,2,.36,2.33-3.06-.32-3.06-.32.36-3.76-.92-6.09-2-8.25-2-8.25-1.79-3.59-1.79-5-2.87-13.09-2.87-13.09Z"/><path class="cls-3" d="M342,222.63s.18-6.46.91-8.43a12.94,12.94,0,0,0,.8-2.86s10.86,2,11.75,1.25a15.76,15.76,0,0,0,.36,2.68,25.32,25.32,0,0,1,.72,6.82c-.2,2.15,0,2.15,0,2.15s-7.35,1.07-7.53,0-.72-1.07-.72-1.07S341.61,223,342,222.63Z"/><g class="cls-2"><path d="M347.88,222.63s-4.54-.13-5.9-.37v.37c-.36.35,6.27.54,6.27.54a.39.39,0,0,1,.25.1C348.26,222.63,347.88,222.63,347.88,222.63Z"/><path d="M355.77,215.27a15.76,15.76,0,0,1-.36-2.68,1,1,0,0,1-.31.11,9.15,9.15,0,0,0,.31,2,28.75,28.75,0,0,1,.72,6.82c-.2,2.15,0,2.15,0,2.15s-5.82.85-7.23.28a1.38,1.38,0,0,0,.06.26c.17,1.07,7.53,0,7.53,0s-.19,0,0-2.15A26.71,26.71,0,0,0,355.77,215.27Z"/><path class="cls-11" d="M347.88,222.63s-4.54-.13-5.9-.37v.37c-.36.35,6.27.54,6.27.54a.39.39,0,0,1,.25.1C348.26,222.63,347.88,222.63,347.88,222.63Z"/><path class="cls-11" d="M355.77,215.27a15.76,15.76,0,0,1-.36-2.68,1,1,0,0,1-.31.11,9.15,9.15,0,0,0,.31,2,28.75,28.75,0,0,1,.72,6.82c-.2,2.15,0,2.15,0,2.15s-5.82.85-7.23.28a1.38,1.38,0,0,0,.06.26c.17,1.07,7.53,0,7.53,0s-.19,0,0-2.15A26.71,26.71,0,0,0,355.77,215.27Z"/></g><path class="cls-9" d="M349.86,193.85a2.37,2.37,0,0,0,.69.88,1.41,1.41,0,0,0,.64.28c-.4.24-.84.41-1.24.64a22.19,22.19,0,0,0-1.82,1.37,3.74,3.74,0,0,1-2.1.81,2.54,2.54,0,0,0,.29-2.55,2.52,2.52,0,0,1-.32-.88,1.59,1.59,0,0,1,.88-1.19l1.05-.68c.28-.17.7-.54,1.05-.52s.39.32.46.64A5,5,0,0,0,349.86,193.85Z"/><path class="cls-5" d="M349.86,193.85a2.37,2.37,0,0,0,.69.88,1.41,1.41,0,0,0,.64.28c-.4.24-.84.41-1.24.64a22.19,22.19,0,0,0-1.82,1.37,3.74,3.74,0,0,1-2.1.81,2.54,2.54,0,0,0,.29-2.55,2.52,2.52,0,0,1-.32-.88,1.59,1.59,0,0,1,.88-1.19l1.05-.68c.28-.17.7-.54,1.05-.52s.39.32.46.64A5,5,0,0,0,349.86,193.85Z"/><circle class="cls-9" cx="354.06" cy="200.3" r="4.12"/><path class="cls-10" d="M359.89,258.84c0,.36-.72,1.25-.72,1.25a8.89,8.89,0,0,1-4.3-.53c-.36-.18.18-1.26.18-1.26l0-.08a4.54,4.54,0,0,1,.68-1.17,5.06,5.06,0,0,0,.57-1.83c1.11-1.82,3.09.79,3.09.79s.25,1.37.38,2.2A5.44,5.44,0,0,1,359.89,258.84Z"/><path class="cls-5" d="M359.89,258.84c0,.36-.72,1.25-.72,1.25a8.89,8.89,0,0,1-4.3-.53c-.36-.18.18-1.26.18-1.26l0-.08a8.76,8.76,0,0,0,3.91.8l.81-.82A5.79,5.79,0,0,1,359.89,258.84Z"/><circle class="cls-9" cx="345.82" cy="191.7" r="4.03"/><path class="cls-9" d="M342.56,199.76a5.09,5.09,0,0,0-1.12,3.4l-.14,1.78a10,10,0,0,0,0,1.45c0,.3.08.6.1.91s0,.71,0,1.07V211a3.07,3.07,0,0,0,.3,1.58,1.07,1.07,0,0,0,1.36.5,1.53,1.53,0,0,0,.57-.88,13.33,13.33,0,0,0,.91-3.34c0-.39,0-.79.08-1.19s.11-.81.16-1.21c.26-1.68.37-3.38.49-5.07,0-.5.48-2.48-.18-2.7-.31-.1-1,.23-1.28.34A3.69,3.69,0,0,0,342.56,199.76Z"/><path class="cls-5" d="M342.56,199.76a5.09,5.09,0,0,0-1.12,3.4l-.14,1.78a10,10,0,0,0,0,1.45c0,.3.08.6.1.91s0,.71,0,1.07V211a3.07,3.07,0,0,0,.3,1.58,1.07,1.07,0,0,0,1.36.5,1.53,1.53,0,0,0,.57-.88,13.33,13.33,0,0,0,.91-3.34c0-.39,0-.79.08-1.19s.11-.81.16-1.21c.26-1.68.37-3.38.49-5.07,0-.5.48-2.48-.18-2.7-.31-.1-1,.23-1.28.34A3.69,3.69,0,0,0,342.56,199.76Z"/><path class="cls-10" d="M350.93,194.3a22.25,22.25,0,0,1-4.84,2.87s-1.07,1.21-1.25,1.5-.55,3.51-.91,4.23a3.42,3.42,0,0,0,0,3.95,7,7,0,0,1,.18,2.15c-.18.54-.83,2.51-.24,2.6s2.39,1.34,4,1,7.62,1.36,7.62,1.36,1-9.23,1.72-10.87l-1.62-.54s-4.48-2.68-1.79-6.81C353.8,195.73,351.28,195.2,350.93,194.3Z"/><path class="cls-3" d="M339.8,205.09l3.7,2.63a.29.29,0,0,0,.33,0l1-.75a.29.29,0,0,0,0-.4l0,0L342,204a.28.28,0,0,0-.28-.05l-1.83.66a.28.28,0,0,0-.17.35A.26.26,0,0,0,339.8,205.09Z"/><path class="cls-9" d="M341,213a9.8,9.8,0,0,1-.38-2.8l-.06-1.26a3.78,3.78,0,0,1,.13-1.46,2.41,2.41,0,0,1,1.54-1.35,5.3,5.3,0,0,1,2.1-.15.68.68,0,0,1,.27.07.48.48,0,0,1,.14.25,1.64,1.64,0,0,1,.08,1.32,1.33,1.33,0,0,1-.42.43c-.49.36-1.07.59-1.54,1a.56.56,0,0,0-.21.27.45.45,0,0,0,0,.28,4.87,4.87,0,0,0,.23.74.81.81,0,0,0,.21.31c.09.07.2.1.29.17s.61.37.59.62a21.74,21.74,0,0,1-.83,2.84C342.76,216,341.31,213.77,341,213Z"/><g class="cls-2"><path d="M346.81,212.59h-.1a3.29,3.29,0,0,0,1.17,0H348A3.89,3.89,0,0,0,346.81,212.59Z"/><path d="M356.22,202.81c-.65,1.45-1.59,9.28-1.76,10.84l1,.28s1-9.21,1.71-10.85Z"/></g><path class="cls-9" d="M354.21,200.43a1.33,1.33,0,0,0,.58.89,7.51,7.51,0,0,1,1,1.06,7.22,7.22,0,0,1,1,2.08,23.13,23.13,0,0,1,.87,2.83c-2.28,1.06-4.88,1-7.3,1.71a5.9,5.9,0,0,0-2.74,1.62,3.78,3.78,0,0,0-1,3,.43.43,0,0,0,.06.18.35.35,0,0,0,.32.12,2.74,2.74,0,0,0,1.67-.57,8,8,0,0,0,1.28-1.26,2.06,2.06,0,0,1,.92-.67A14.81,14.81,0,0,1,355,211a52.2,52.2,0,0,0,6.12-.48.5.5,0,0,0,.55-.43V210c.2-2.69-.8-5.32-1.83-7.81-.41-1-.83-2-1.27-3a8.71,8.71,0,0,0-1.55-2.65,2.65,2.65,0,0,0-.91-.68,3.93,3.93,0,0,0-1.22-.23,8.45,8.45,0,0,0-2,0,4.46,4.46,0,0,0-.19,1,9,9,0,0,0,1.11,3.5C353.91,200.26,354.1,200.27,354.21,200.43Z"/><path class="cls-12" d="M346.9,202.74a3.33,3.33,0,0,0-.45,1.74,2.46,2.46,0,0,0,.11.72,2.3,2.3,0,0,0,1.46,1.36"/><path class="cls-3" d="M349.22,187.75a2.17,2.17,0,0,0-.66.11,4.37,4.37,0,0,0-3.65-1.54c-2.18,0-3.94,1.12-3.94,2.51s1.76,2.51,3.94,2.51a5.52,5.52,0,0,0,2.37-.5,2.15,2.15,0,1,0,1.94-3.09Z"/><path class="cls-5" d="M349.4,191.52a2.15,2.15,0,0,1-1.93-1.22,5.52,5.52,0,0,1-2.37.5c-2.18,0-3.94-1.12-3.94-2.51a1,1,0,0,1,0-.25,1.68,1.68,0,0,0-.2.79c0,1.37,1.76,2.51,3.94,2.51a5.52,5.52,0,0,0,2.37-.5,2.15,2.15,0,0,0,2.87,1,2.18,2.18,0,0,0,1.18-1.54A2.16,2.16,0,0,1,349.4,191.52Z"/><path class="cls-5" d="M340.43,187.84a6.11,6.11,0,0,1,6.85-3.27,6.44,6.44,0,0,1,8.87,2.1,6.37,6.37,0,0,1,.94,2.86V189a6.45,6.45,0,0,0-6.46-6.44,6.53,6.53,0,0,0-3.38,1,6.08,6.08,0,0,0-6.84,3.26,7.44,7.44,0,0,0-2.32,5.55v.53A7.29,7.29,0,0,1,340.43,187.84Z"/><path class="cls-7" d="M381.56,189.21c1.2-2.21-.15-4.91-1.71-6.88s-3.44-4-3.4-6.52c.05-3.6,3.87-5.72,6.93-7.64a33.41,33.41,0,0,0,6.22-5,9.05,9.05,0,0,0,1.92-2.56,10.47,10.47,0,0,0,.57-4.57q-.19-7.71-.76-15.4"/><path class="cls-4" d="M397.14,140.36a5.62,5.62,0,0,0-2.81-4.6l-1.26,2.49,0-3a5.5,5.5,0,0,0-1.85-.23,5.62,5.62,0,1,0,5.88,5.35Z"/><path class="cls-4" d="M387.12,178.37a5.61,5.61,0,1,1,.27-4.52l-3.51,2.86,3.86-.92A5.49,5.49,0,0,1,387.12,178.37Z"/><path class="cls-4" d="M384.35,167.47a5.62,5.62,0,0,1-1.79-11l0,2.31,1.27-2.51h0a5.62,5.62,0,0,1,.53,11.22h0Z"/><path class="cls-4" d="M398,158.4a5.62,5.62,0,1,1-.57-11.22,5.72,5.72,0,0,1,3.06.72l-1,2.74,2-2a5.59,5.59,0,0,1,1.83,3.88,5.3,5.3,0,0,1-.14,1.54A5.63,5.63,0,0,1,398,158.4Z"/><path class="cls-5" d="M396.38,141.86c-1.29.14-2.56.54-3.86.63a4.2,4.2,0,0,1-3.55-1.25,19.37,19.37,0,0,1-1-1.82,4,4,0,0,0-1.41-1.34,5.62,5.62,0,0,0,10,5.12,5.75,5.75,0,0,0,.49-1.39C396.8,141.82,396.59,141.83,396.38,141.86Z"/><path class="cls-5" d="M398,158.4a5.62,5.62,0,0,1-5.87-5.36,5.53,5.53,0,0,1,.53-2.65,4.3,4.3,0,0,1,1.13,1.12,17.55,17.55,0,0,0,1.11,1.86,4.59,4.59,0,0,0,3.72,1.31c1.36-.07,2.67-.46,4-.58.19,0,.38,0,.56,0A5.61,5.61,0,0,1,398,158.4Z"/><path class="cls-5" d="M384.35,167.47a5.62,5.62,0,0,1-5.39-7.92,4.77,4.77,0,0,1,1.19,1.14,21.85,21.85,0,0,0,1.21,1.9,5.25,5.25,0,0,0,4,1.39c1.44,0,2.74-.37,4.11-.48A5.64,5.64,0,0,1,384.35,167.47Z"/><path class="cls-5" d="M387.12,178.37a5.62,5.62,0,0,1-10.24-4.56,5.87,5.87,0,0,1,1.23,1.1c.54.65.89,1.37,1.51,2a7,7,0,0,0,4.65,1.63A22.59,22.59,0,0,0,387.12,178.37Z"/><path class="cls-7" d="M454.1,258.55c1.19-2.21-.16-4.91-1.71-6.88s-3.45-4-3.41-6.52c.06-3.6,3.88-5.72,6.94-7.63a34.12,34.12,0,0,0,6.22-5,9.29,9.29,0,0,0,1.92-2.56,10.45,10.45,0,0,0,.57-4.56q-.19-7.71-.76-15.4"/><path class="cls-4" d="M469.67,209.7a5.61,5.61,0,0,0-2.8-4.6l-1.26,2.49,0-3a5.38,5.38,0,0,0-1.83-.22,5.62,5.62,0,1,0,5.87,5.34h0Z"/><path class="cls-4" d="M459.66,247.72a5.6,5.6,0,1,1,.27-4.53l-3.51,2.86,3.86-.91A5.67,5.67,0,0,1,459.66,247.72Z"/><path class="cls-4" d="M456.88,236.81a5.62,5.62,0,0,1-1.78-11l0,2.32,1.28-2.52h0a5.62,5.62,0,0,1,.53,11.22h0Z"/><path class="cls-4" d="M470.52,227.74A5.62,5.62,0,1,1,473,217.25L472,220l2-2a5.61,5.61,0,0,1,1.83,3.88,5.41,5.41,0,0,1-.15,1.55A5.61,5.61,0,0,1,470.52,227.74Z"/><path class="cls-5" d="M468.92,211.2c-1.3.14-2.56.55-3.86.63a4.16,4.16,0,0,1-3.55-1.25,15.56,15.56,0,0,1-1-1.82,4.08,4.08,0,0,0-1.41-1.33,5.61,5.61,0,0,0,10,5.11,5.75,5.75,0,0,0,.49-1.39Z"/><path class="cls-5" d="M470.52,227.74a5.62,5.62,0,0,1-5.35-8,4.05,4.05,0,0,1,1.13,1.13,18.19,18.19,0,0,0,1.12,1.85,4.59,4.59,0,0,0,3.72,1.31c1.36-.07,2.66-.46,4-.57.18,0,.37,0,.56,0A5.61,5.61,0,0,1,470.52,227.74Z"/><path class="cls-5" d="M456.88,236.81a5.6,5.6,0,0,1-5.87-5.33,5.52,5.52,0,0,1,.49-2.59,4.61,4.61,0,0,1,1.18,1.15c.46.61.71,1.32,1.22,1.89a5.16,5.16,0,0,0,4,1.39c1.44,0,2.74-.37,4.1-.47A5.6,5.6,0,0,1,456.88,236.81Z"/><path class="cls-5" d="M459.66,247.72a5.62,5.62,0,0,1-10.24-4.56,5.58,5.58,0,0,1,1.23,1.1c.54.65.91,1.36,1.5,2a7.09,7.09,0,0,0,4.66,1.64A24.77,24.77,0,0,0,459.66,247.72Z"/><path class="cls-13" d="M218.07,194.18a4.46,4.46,0,0,0-1.79-3.61,5.25,5.25,0,0,0-4.38-5.15,5.27,5.27,0,0,0-3.49-3.9h0c-.21-.06-.43-.11-.65-.15H207a5.13,5.13,0,0,0-5,4.39c-1.61-.37-3.07.11-3.34,1.12a1.35,1.35,0,0,0,.05.82,3.52,3.52,0,0,0,2.35,1.9l.16.05.23.06h.05a3.83,3.83,0,0,0-.38,1.73,4,4,0,0,0,2.14,3.55l-.1.07a1.38,1.38,0,0,0-.35.48,7.19,7.19,0,0,0-.67,1.62c-.11.48-.13,1-.27,1.46-.27.88-.94,1.63-1,2.54,0,.41,0,.91-.26,1.18a1.19,1.19,0,0,1-.23.16,2,2,0,0,0-.51.54,2,2,0,0,1-.35.51c-.27.19-.7.18-.83.48s.21.67.13,1-.36.4-.57.58a2.06,2.06,0,0,0-.49.92,3,3,0,0,1-2.46-.63,4.74,4.74,0,0,1,.26.91,4.17,4.17,0,0,0-1.33-.67,4.17,4.17,0,0,1-1.42-1l.76-.1-3.34-5.11-1-.2.88,1.7a.54.54,0,0,0-.3.36,1.42,1.42,0,0,0,0,.58,9.11,9.11,0,0,0,.23,1.37l.25,1.19c0,.11.05.23.08.34a3,3,0,0,0-1,.11,8.51,8.51,0,0,0-2.05-.49,1.19,1.19,0,0,0-.46,0,1.13,1.13,0,0,0-.43.35,14,14,0,0,0-1.53,2.15,74.88,74.88,0,0,1-6.45,8.69c-1.55.63-3.12,1.23-4.68,1.83l-3.37,1.29a5.2,5.2,0,0,1-2.09.45c-.32,0-.71-.07-.91.21a1.85,1.85,0,0,0-.21.45l-.34,0h0a4.09,4.09,0,0,0-.81-1.49.52.52,0,0,0-.38.29,3.29,3.29,0,0,1-.23.46c-.17.27-.49.39-.71.62s-.37.57-.61.8a2.51,2.51,0,0,1-1.15.45,7.6,7.6,0,0,0-1.79.68,3.31,3.31,0,0,1-.66.31,2.27,2.27,0,0,1-.78,0l-1.78-.13a1.55,1.55,0,0,0-.48,0,.92.92,0,0,0-.57.92,1.45,1.45,0,0,0,.57,1,3.59,3.59,0,0,0,1,.52,30.14,30.14,0,0,0,4.75,1.41v.36a8,8,0,0,0,3.65.86.52.52,0,0,0,.27,0,.56.56,0,0,0,.23-.35,14.9,14.9,0,0,0,.71-3.5h0a1.77,1.77,0,0,0,.64-.16c.61-.17,1.22.25,1.86.32a5,5,0,0,0,2.24-.65l.32-.1a3.28,3.28,0,0,1-.74.7c-.31.22-.65.39-.95.62a8.12,8.12,0,0,1-.8.62,4.49,4.49,0,0,1-.61.23,3.87,3.87,0,0,0-.88.46,1.67,1.67,0,0,0-.6.58.88.88,0,0,0,0,.82.82.82,0,0,0,.59.41,2.18,2.18,0,0,0,.72,0c1-.07,1.93-.15,2.89-.24a9.79,9.79,0,0,0,1.21-.17l.63-.18a5.85,5.85,0,0,1,1.1-.17,1.12,1.12,0,0,1,.32,0c.22.08.38.31.61.35a.9.9,0,0,0,.46-.06,10.24,10.24,0,0,1,2.14-.23.87.87,0,0,0,.83-.37c.14-.29-.12-.76-.24-1.14a4,4,0,0,1-.1-.76,4.57,4.57,0,0,0-.53-1.8,4.79,4.79,0,0,1-.4-.82,20.27,20.27,0,0,0,3.94-2,7,7,0,0,1,2.25-1.08,6.17,6.17,0,0,1,2.82.33,64.1,64.1,0,0,1,6.46,2.25c1,.42,2,.85,3.05,1.17a4.72,4.72,0,0,0,1.09,1.05,5,5,0,0,0,2.35.65,30.33,30.33,0,0,0,3.3.12,5.52,5.52,0,0,0,2.47-.46,2.16,2.16,0,0,0,.51-.34,2.06,2.06,0,0,0,1.63-.6,3.84,3.84,0,0,0,1.23-2c.27-1,.07-2.28.71-3.11.17-.23.39-.41.56-.64a1.85,1.85,0,0,0,.29-1l0,0a3.87,3.87,0,0,0,.27-1,5.85,5.85,0,0,1,.3-.83c.32-.81.6-1.63.85-2.46a16.53,16.53,0,0,0,.39-1.69c.07-.46.11-.91.14-1.37a8.4,8.4,0,0,1,.42-2.11,17.44,17.44,0,0,0,1-5.06v-.1a3.38,3.38,0,0,0,3-3.44,3.62,3.62,0,0,0-.32-1.48A4.54,4.54,0,0,0,218.07,194.18ZM201.74,214c0,.18.11.35.17.53-.27-.26-.53-.53-.8-.8l.32.11.3.16Zm-1.29-.87c-1.58-1.37-3.4-2.43-5-3.76.88.43,1.74.94,2.59,1.42,1,.58,2,1.13,3.06,1.66a2.76,2.76,0,0,1-.64.68Zm.67-3.45.08-.08v.54l-.42-.14.33-.32Zm-13.88,3.69a12.86,12.86,0,0,0,1.68-2.39,16.12,16.12,0,0,0,2.5,2.8C190,213.61,188.64,213.46,187.24,213.38Z"/><polygon class="cls-14" points="189.48 200.1 190.48 200.3 193.87 205.31 192.38 205.51 189.48 200.1"/><path class="cls-15" d="M165.37,220.44a19.61,19.61,0,0,0,1,2.58,23.58,23.58,0,0,0,3.31-.94,8.7,8.7,0,0,0-.69-.91,3.42,3.42,0,0,0-.93-.72,2.74,2.74,0,0,0-1.14,0Z"/><path class="cls-14" d="M168.05,221.77a2.05,2.05,0,0,1-1.13-1.28,4.11,4.11,0,0,0-.86-1.54.46.46,0,0,0-.38.29c-.09.14-.14.31-.23.45s-.5.39-.73.61-.36.56-.61.78a2.46,2.46,0,0,1-1.15.46,7.44,7.44,0,0,0-1.83.67,2.69,2.69,0,0,1-.67.3,2.55,2.55,0,0,1-.78,0l-1.8-.13a1.77,1.77,0,0,0-.46,0,.88.88,0,0,0-.57.92,1.36,1.36,0,0,0,.57,1,3.64,3.64,0,0,0,1,.52,30.07,30.07,0,0,0,4.82,1.37v.36a8.34,8.34,0,0,0,3.67.85.43.43,0,0,0,.51-.4,14.4,14.4,0,0,0,.75-3.9,3.12,3.12,0,0,0-.08-1c-.1-.33.24-.19-.07-.32"/><path class="cls-14" d="M202.52,215c-5.33.32-10.59-1.24-15.93-1.41a7.74,7.74,0,0,0-2,.13,9.94,9.94,0,0,0-2,.76c-2.86,1.33-5.82,2.44-8.78,3.53l-3.4,1.27a5,5,0,0,1-2.1.45c-.32,0-.72-.06-.91.21a3.34,3.34,0,0,0,.07,2.94c.12.29.32.62.64.65a2.14,2.14,0,0,0,.65-.16c.61-.17,1.23.25,1.87.32a5.39,5.39,0,0,0,2.26-.64,19.21,19.21,0,0,1,3.87-.66,17.43,17.43,0,0,0,6.05-2.51,7.11,7.11,0,0,1,2.26-1.07,6.37,6.37,0,0,1,2.84.32,66.69,66.69,0,0,1,6.52,2.22,29.55,29.55,0,0,0,3.41,1.24,12.23,12.23,0,0,0,7.63-.45c.85-.34,1.78-.91,1.82-1.85,0-.53-.37-1-.64-1.44-.18-.29-.36-.58-.54-.85C205.26,216.67,204.14,214.9,202.52,215Z"/><path class="cls-5" d="M202.52,215c-5.33.32-10.59-1.24-15.93-1.41a7.74,7.74,0,0,0-2,.13,9.94,9.94,0,0,0-2,.76c-2.86,1.33-5.82,2.44-8.78,3.53l-3.4,1.27a5,5,0,0,1-2.1.45c-.32,0-.72-.06-.91.21a3.34,3.34,0,0,0,.07,2.94c.12.29.32.62.64.65a2.14,2.14,0,0,0,.65-.16c.61-.17,1.23.25,1.87.32a5.39,5.39,0,0,0,2.26-.64,19.21,19.21,0,0,1,3.87-.66,17.43,17.43,0,0,0,6.05-2.51,7.11,7.11,0,0,1,2.26-1.07,6.37,6.37,0,0,1,2.84.32,66.69,66.69,0,0,1,6.52,2.22,29.55,29.55,0,0,0,3.41,1.24,12.23,12.23,0,0,0,7.63-.45c.85-.34,1.78-.91,1.82-1.85,0-.53-.37-1-.64-1.44-.18-.29-.36-.58-.54-.85C205.26,216.67,204.14,214.9,202.52,215Z"/><path class="cls-15" d="M175.6,220.68c.84.29,1.68.55,2.53.79.45-.78,1.36-1.33,1.56-2.22a.24.24,0,0,0,0-.12.16.16,0,0,0-.1-.08,4.59,4.59,0,0,0-2-.58c-.54,0-.79.53-1,.94C176.47,219.58,175.83,220.77,175.6,220.68Z"/><path class="cls-14" d="M176.77,220.13a1.86,1.86,0,0,1-1.23-.81c-.11-.21-.24-.48-.48-.46s-.31.28-.36.49a14,14,0,0,1-.69,2.37,4.47,4.47,0,0,1-1.47,1.94c-.31.21-.66.37-1,.6a6.13,6.13,0,0,1-.81.61,4.62,4.62,0,0,1-.62.23,4.09,4.09,0,0,0-.88.46,1.76,1.76,0,0,0-.61.57.86.86,0,0,0,0,.81.87.87,0,0,0,.59.4,2.3,2.3,0,0,0,.74,0c1-.06,1.94-.15,2.91-.24a7.17,7.17,0,0,0,1.22-.17l.63-.17a4.72,4.72,0,0,1,1.11-.16.93.93,0,0,1,.33,0c.22.07.38.29.61.34a1.19,1.19,0,0,0,.46-.06,9.78,9.78,0,0,1,2.16-.22.92.92,0,0,0,.84-.37c.18-.35-.12-.75-.25-1.13a3.86,3.86,0,0,1-.1-.75,4.43,4.43,0,0,0-.53-1.77c-.25-.45-.58-1-.41-1.44a1.23,1.23,0,0,0,.16-.5C179,220,177.22,220.23,176.77,220.13Z"/><path class="cls-15" d="M194.53,206.45a4.16,4.16,0,0,1-2.12-2.11c-.09-.2-.16-.41-.25-.61a4.66,4.66,0,0,0-1.27-1.77.63.63,0,0,0-.45-.2.51.51,0,0,0-.34.37,1.23,1.23,0,0,0,0,.57,10.14,10.14,0,0,0,.23,1.34l.26,1.17a2.49,2.49,0,0,0,.16.53,1.77,1.77,0,0,0,.43.51l.72.64a2.51,2.51,0,0,0,.46.32,2.44,2.44,0,0,0,.81.23,7,7,0,0,1,3,1.17v-.87a1.23,1.23,0,0,0-.22-.64A4.17,4.17,0,0,0,194.53,206.45Z"/><path class="cls-5" d="M194.53,206.45a4.16,4.16,0,0,1-2.12-2.11c-.09-.2-.16-.41-.25-.61a4.66,4.66,0,0,0-1.27-1.77.63.63,0,0,0-.45-.2.51.51,0,0,0-.34.37,1.23,1.23,0,0,0,0,.57,10.14,10.14,0,0,0,.23,1.34l.26,1.17a2.49,2.49,0,0,0,.16.53,1.77,1.77,0,0,0,.43.51l.72.64a2.51,2.51,0,0,0,.46.32,2.44,2.44,0,0,0,.81.23,7,7,0,0,1,3,1.17v-.87a1.23,1.23,0,0,0-.22-.64A4.17,4.17,0,0,0,194.53,206.45Z"/><ellipse class="cls-14" cx="205.38" cy="196.14" rx="1.3" ry="1.3"/><path class="cls-14" d="M204.58,195.35a1.06,1.06,0,0,0-1.37.63,7,7,0,0,0-.68,1.59c-.11.45-.13,1-.28,1.44-.26.87-.94,1.6-1,2.5,0,.41,0,.88-.26,1.16a2.07,2.07,0,0,1-.24.17,1.81,1.81,0,0,0-.51.52,1.64,1.64,0,0,1-.36.5c-.26.19-.7.18-.83.45s.21.66.13,1-.36.39-.57.57a2.06,2.06,0,0,0-.49.92,3,3,0,0,1-2.48-.62A7.84,7.84,0,0,1,196,209a1.12,1.12,0,0,1-.22.87,16.69,16.69,0,0,1,3,.53,2,2,0,0,0,1.33,0,2.16,2.16,0,0,0,.61-.48A3.93,3.93,0,0,0,202,208a11.49,11.49,0,0,0,0-1.31,8,8,0,0,1,.34-1.6,19,19,0,0,0,.58-3.27c.06-.69.65-1.23,1-1.83a8.94,8.94,0,0,0,1.23-3.65C205.16,195.93,205,195.4,204.58,195.35Z"/><path class="cls-5" d="M204.58,195.35a1.06,1.06,0,0,0-1.37.63,7,7,0,0,0-.68,1.59c-.11.45-.13,1-.28,1.44-.26.87-.94,1.6-1,2.5,0,.41,0,.88-.26,1.16a2.07,2.07,0,0,1-.24.17,1.81,1.81,0,0,0-.51.52,1.64,1.64,0,0,1-.36.5c-.26.19-.7.18-.83.45s.21.66.13,1-.36.39-.57.57a2.06,2.06,0,0,0-.49.92,3,3,0,0,1-2.48-.62A7.84,7.84,0,0,1,196,209a1.12,1.12,0,0,1-.22.87,16.69,16.69,0,0,1,3,.53,2,2,0,0,0,1.33,0,2.16,2.16,0,0,0,.61-.48A3.93,3.93,0,0,0,202,208a11.49,11.49,0,0,0,0-1.31,8,8,0,0,1,.34-1.6,19,19,0,0,0,.58-3.27c.06-.69.65-1.23,1-1.83a8.94,8.94,0,0,0,1.23-3.65C205.16,195.93,205,195.4,204.58,195.35Z"/><path class="cls-14" d="M203.37,216.12a12.12,12.12,0,0,1-2.82-2.35c-1.71-1.61-3.81-2.74-5.61-4.26a38.83,38.83,0,0,0-3.57-3,9.06,9.06,0,0,0-3.83-1.34,1.19,1.19,0,0,0-.46,0,1.1,1.1,0,0,0-.43.34,14.14,14.14,0,0,0-1.55,2.13c-2.28,3.87-5.52,7.13-8.21,10.73a.91.91,0,0,0-.13.26.63.63,0,0,0,.1.4l.55,1.06c.3.61.8,1.3,1.45,1.19a1.7,1.7,0,0,0,.77-.49l2.45-2.35,2.57-2.46a19.86,19.86,0,0,0,4-4.75c.76,1.33,2.13,2.2,3.06,3.42.35.45.65,1,1,1.46.5.79,1.08,1.53,1.66,2.28l2.95,3.77a5.57,5.57,0,0,0,1.37,1.37,5.26,5.26,0,0,0,2.36.63,31.07,31.07,0,0,0,3.34.12,5.77,5.77,0,0,0,2.49-.46,2.25,2.25,0,0,0,1.34-2,3,3,0,0,0-.42-1.25A10.24,10.24,0,0,0,203.37,216.12Z"/><ellipse class="cls-16" cx="206.18" cy="197.04" rx="1" ry="1"/><path class="cls-15" d="M206,196.29a1.9,1.9,0,0,1,.11,1.44,5.83,5.83,0,0,1-.64,1.33,6.1,6.1,0,0,1-.84,1.19A8.59,8.59,0,0,0,209,199a6.35,6.35,0,0,0,2.77-2.42,1.24,1.24,0,0,1-1-.19,3.82,3.82,0,0,1-.78-.72l-.77-.87a3.18,3.18,0,0,1-.46-.63,1.66,1.66,0,0,1-.2-1,5.84,5.84,0,0,1-1,.84c-.56.36-1.16.62-1.72,1-.19.13-.63.33-.52.58S205.81,196,206,196.29Z"/><path class="cls-5" d="M206,196.29a1.9,1.9,0,0,1,.11,1.44,5.83,5.83,0,0,1-.64,1.33,6.1,6.1,0,0,1-.84,1.19A8.59,8.59,0,0,0,209,199a6.35,6.35,0,0,0,2.77-2.42,1.24,1.24,0,0,1-1-.19,3.82,3.82,0,0,1-.78-.72l-.77-.87a3.18,3.18,0,0,1-.46-.63,1.66,1.66,0,0,1-.2-1,5.84,5.84,0,0,1-1,.84c-.56.36-1.16.62-1.72,1-.19.13-.63.33-.52.58S205.81,196,206,196.29Z"/><path class="cls-16" d="M206,196.44a1.31,1.31,0,0,0,0,1.51c.05.05.21.39.28.4a.26.26,0,0,0,.17-.09,12.14,12.14,0,0,0,1-1.17,2.19,2.19,0,0,1,1.24-.81,2.76,2.76,0,0,1,1.71.53,1.78,1.78,0,0,1,.59.46,1.63,1.63,0,0,1,.19.65,30.33,30.33,0,0,1,.17,4.15,16.63,16.63,0,0,1-.19,3c-.1.5-.25,1-.32,1.52a10.39,10.39,0,0,0-.06,1.37v1.9a5.3,5.3,0,0,0,.07,1.05c.09.41.29.8.42,1.21a7.59,7.59,0,0,1,.28,1.42l.26,2a2.48,2.48,0,0,1-.23,1.82c-.17.22-.39.41-.57.63-.64.84-.45,2-.71,3.07a3.73,3.73,0,0,1-1.25,1.91,2,2,0,0,1-1.64.59,2.25,2.25,0,0,1-1.5-1.77,7.29,7.29,0,0,0-.77-2.32,6.24,6.24,0,0,0-1.53-1.27,2.65,2.65,0,0,1-1.19-1.55c0-.28,0-.58,0-.87a2.08,2.08,0,0,0-1.27-1.68c-.41-.16-.91-.22-1.15-.59a2.78,2.78,0,0,0,1.2-1.61,8.24,8.24,0,0,0,.29-2l.14-2.28a7.59,7.59,0,0,1,.54-3c.2-.41.46-.8.66-1.2a12.34,12.34,0,0,0,.71-1.77c.33-.94.66-1.88,1-2.83a5.12,5.12,0,0,1,.52-1.31C205.16,197.05,205.52,196.53,206,196.44Z"/><path class="cls-14" d="M200.89,211.33h.61l.13-.91a2.12,2.12,0,0,1,.13-.54,2.89,2.89,0,0,1,.35-.51,6.74,6.74,0,0,0,.7-3,15.05,15.05,0,0,1,1.33-3.91l1.17-2.62a3.44,3.44,0,0,0,.26-.67,4.11,4.11,0,0,0,.07-.78c0-.4.13-1.88.14-2.28,0-.15-.33-.07-.4-.2-.14-.29-.34.5-.62.67a1.55,1.55,0,0,0-.54.79c-.26.66-.42,1.37-.65,2a4.18,4.18,0,0,1-1.1,1.78c-.24.21-.52.38-.75.61a4.14,4.14,0,0,0-.83,2.9C200.88,205.34,200.76,211.33,200.89,211.33Z"/><path class="cls-14" d="M209.63,195.35a2.07,2.07,0,0,0-1.09,1.48,7.27,7.27,0,0,1-.54,1.83c-.74,1.28-2.63,1.66-3.15,3.05a5.83,5.83,0,0,0-.21,1.44c-.09,1-.42,2-.52,2.95a14,14,0,0,0,0,2.33l.67,7.85a10.58,10.58,0,0,1-.2,3.46,3.31,3.31,0,0,0,2-.33c.62-.28,1.18-.67,1.78-1a18.2,18.2,0,0,0,3-1.71,2,2,0,0,0,.41-.46,4.14,4.14,0,0,0,.28-1,4.59,4.59,0,0,1,.29-.81,24.22,24.22,0,0,0,.86-2.43,16,16,0,0,0,.39-1.66c.07-.46.12-.91.15-1.37a8.26,8.26,0,0,1,.42-2.08,16.6,16.6,0,0,0,1-5,2.25,2.25,0,0,0-.05-.73,3.73,3.73,0,0,0-.4-.83c-.27-.52-.45-1.08-.69-1.61a7.87,7.87,0,0,0-2.7-2.83A2.06,2.06,0,0,0,209.63,195.35Z"/><path class="cls-15" d="M195.84,208.17a5,5,0,0,1-1.25-.95c-.16-.2-.3-.41-.46-.6a3,3,0,0,0-1.58-.91,7,7,0,0,0-1.82-.18,3.38,3.38,0,0,0-1.22.14,1.26,1.26,0,0,0-.81.87,1.44,1.44,0,0,0,.62,1.28,3,3,0,0,0,1.23.59,8,8,0,0,0,1.11.13c2.18.23,4.12,1.42,6,2.5,1.67,1,3.39,1.84,5.13,2.66a10.26,10.26,0,0,0,.09-1.57c0-.39,0-1-.4-1.23a8.49,8.49,0,0,0-1.63-.49,24.08,24.08,0,0,1-3.29-1.33A16.26,16.26,0,0,1,195.84,208.17Z"/><ellipse class="cls-15" cx="205.38" cy="191.93" rx="3.89" ry="3.91"/><path class="cls-14" d="M210.73,199.78a6.36,6.36,0,0,0-.75,1.41c-.45,1-1.23,1.82-1.61,2.87s-.38,2.39-1.16,3.24a1,1,0,0,0-.34.49c0,.12,0,.24,0,.36-.11.31-.62.32-.72.64a1.35,1.35,0,0,1,0,.28c-.08.21-.35.24-.53.36-.38.26-.3.85-.57,1.22a1,1,0,0,1-1,.34,3.24,3.24,0,0,1-1-.38.94.94,0,0,0-.37-.11.82.82,0,0,0-.42.15,2.58,2.58,0,0,0-1,2.21,7.4,7.4,0,0,0,.61,2.48.93.93,0,0,0,.19.37.9.9,0,0,0,1,.07,4.69,4.69,0,0,1,.94-.43c.61-.1,1.19.31,1.81.27a2.49,2.49,0,0,0,1.21-.53,6.9,6.9,0,0,0,1.63-1.37c.27-.35.46-.75.7-1.12a14,14,0,0,1,1-1.31l2.24-2.74a5.48,5.48,0,0,0,.6-.83,5.69,5.69,0,0,0,.46-1.25,10,10,0,0,0,.46-2.23,8.35,8.35,0,0,0-.17-1.87,6.82,6.82,0,0,0-.45-1.79C212.84,199.55,211.65,198.71,210.73,199.78Z"/><path class="cls-17" d="M218.54,194.68a4.38,4.38,0,0,0-1.79-3.56,5.22,5.22,0,0,0-4.42-5.07,5,5,0,0,0-10,.27c-1.62-.36-3.1.11-3.37,1.11s.88,2.28,2.58,2.73a4.81,4.81,0,0,0,1.65.17,5,5,0,0,0,3.48,2.16,5.19,5.19,0,0,0,3.79,3.92,4.38,4.38,0,0,0,1.17,1.62v.38a3.29,3.29,0,0,0,6.58,0h0A3.64,3.64,0,0,0,218,197,4.3,4.3,0,0,0,218.54,194.68Z"/><path class="cls-5" d="M200.11,187.64c.27-1,1.75-1.47,3.36-1.11a5.14,5.14,0,0,1,5-4.32h.33a4.91,4.91,0,0,0-1.43-.22,5.15,5.15,0,0,0-5,4.33c-1.61-.37-3.09.11-3.36,1.1s.87,2.28,2.57,2.74a5.43,5.43,0,0,0,1,.17C200.93,189.84,199.84,188.65,200.11,187.64Z"/><path class="cls-5" d="M212.76,198.6a2.41,2.41,0,0,1,0-.38,4.12,4.12,0,0,1-1.17-1.62,5.16,5.16,0,0,1-3.8-3.91,5.07,5.07,0,0,1-3.48-2.17,4.5,4.5,0,0,1-1,0,5.08,5.08,0,0,0,3.35,2,5.17,5.17,0,0,0,3.8,3.91,4.3,4.3,0,0,0,1.17,1.62v.38a3.36,3.36,0,0,0,3.27,3.41A3.42,3.42,0,0,1,212.76,198.6Z"/><ellipse class="cls-15" cx="206.68" cy="192.73" rx="0.6" ry="0.8" transform="translate(-74.48 164.27) rotate(-37.22)"/></g></g></svg>