<svg xmlns="http://www.w3.org/2000/svg" viewBox="0 0 500 263.23"><defs><style>.cls-1{fill:#f2f2f2;}.cls-2{fill:#3f3d56;}.cls-3{opacity:0.1;}.cls-3,.cls-9{isolation:isolate;}.cls-4{fill:#ffb8b8;}.cls-5{fill:#ff6584;}.cls-6{fill:#2f2e41;}.cls-7{fill:#d0cde1;}.cls-8,.cls-9{fill:#ba494f;}.cls-10,.cls-9{opacity:0.3;}</style></defs><g id="Layer_2" data-name="Layer 2"><g id="e8c09660-db65-4061-a2dc-920e909a0453"><path class="cls-1" d="M439.09,117.49l-47.31,22.4,41.88-31.32a237.74,237.74,0,0,0-22.87-30.09l-205.22,51L390.94,58.78A236.33,236.33,0,0,0,364,38.26L51.32,88.63A234.38,234.38,0,0,0,0,234.88H470.7A234.17,234.17,0,0,0,439.09,117.49Z"/><path class="cls-1" d="M338.43,23.72a235.52,235.52,0,0,0-283.95,61C128.41,68.56,257.12,40.52,338.43,23.72Z"/><path class="cls-2" d="M470.7,233.93c0,7.31-67.92,29.3-151.7,29.3s-151.71-22-151.71-29.3,67.92,2.84,151.71,2.84S470.7,226.63,470.7,233.93Z"/><path class="cls-3" d="M470.7,233.93c0,7.31-67.92,29.3-151.7,29.3s-151.71-22-151.71-29.3,67.92,2.84,151.71,2.84S470.7,226.63,470.7,233.93Z"/><ellipse class="cls-2" cx="319" cy="233.93" rx="151.7" ry="13.23"/><path class="cls-4" d="M276.77,126.24s6.1,9.68,3.92,12.3S297,141.23,297,141.23s-2.78-14.08-2-17.32Z"/><path class="cls-3" d="M276.77,126.24s6.1,9.68,3.92,12.3S297,141.23,297,141.23s-2.78-14.08-2-17.32Z"/><circle class="cls-5" cx="286.52" cy="110.62" r="19.13"/><polygon class="cls-4" points="331.52 214.32 331.52 225.66 342.86 223.3 341.92 215.27 331.52 214.32"/><path class="cls-4" d="M371.69,216.21l31.66,5.2-8,11.81s-22.21-7.56-27.88-7.56S371.69,216.21,371.69,216.21Z"/><path class="cls-6" d="M299.86,193.53s23.63-27.41,31.19-26,10.87,9.93,10.87,9.93l4.25,42.06s-15.12,1.42-15.12,0-2.84-31.66-2.84-31.66S306,237,294.19,204.4Z"/><path class="cls-6" d="M261.58,212s.47,23.63,14.65,25S306,227.55,306,227.55l25.52-12.22s30.25,16,39.23,11.75c0,0,9.45-9.92,3.3-12.76s-.47,0-.47,0l-36.39-18.9s-7.09-1.89-19.37,3.31S289,206.29,289,206.29Z"/><circle class="cls-4" cx="285.21" cy="116.97" r="14.18"/><path class="cls-2" d="M305.53,156.66l-.95,19.85s.48,26-3.78,27.89c-2.15.95-6.47,2.87-10.46,5A39,39,0,0,0,283,214a5.48,5.48,0,0,0-1.06,1.24c-1.89,3.3-14.18,2.83-17,.47s-.95,2.83-3.31,3.78-5.46-6.58-3.52-17.77c.06-.37.13-.75.21-1.13,2.17-10.85-1.24-36.83-.71-46.87a17.45,17.45,0,0,1,.24-2.28c1.41-7.57,19.5-22.95,22.89-16.4,4.17,8.09,13.74.7,15.39-3,9.45-.47,12.76,10.87,12.76,10.87Z"/><path class="cls-6" d="M343.81,221.41s-7.56,2.84-9.93,2.36a4.09,4.09,0,0,0-4.72,4.26c0,2.83-2.84,9.45,1.42,9.92s21.73-.47,25.52,1c0,0,17,.47,15.59-6.62s-8.51-6.62-8.51-6.62S343.81,224.72,343.81,221.41Z"/><path class="cls-6" d="M399.1,222.83s.95-2.84,2.36-2.84,12.76,1.89,14.18,1.42,18-1.42,15.13,6.62-12.29,9-12.29,9-17-1.89-19.38-1.42-10.87,0-9.45-2.37S400.05,226.61,399.1,222.83Z"/><path class="cls-7" d="M356.08,155l2.6,10.69a.73.73,0,0,1,0,.36L346.9,202.76a.67.67,0,0,1-1.3-.13L344,188.31a.65.65,0,0,1,0-.28l10.8-33.13a.66.66,0,0,1,.84-.43A.65.65,0,0,1,356.08,155Z"/><polygon class="cls-1" points="355.13 155.85 357.52 165.03 347.15 198.54 344.76 188.16 355.13 155.85"/><path class="cls-7" d="M302.87,205.72c.39,1.2,41.49-.4,41.89-.8a8.76,8.76,0,0,0,.87-1.59c.38-.8.72-1.6.72-1.6l-1.59-12.92-40.7-1.44s-1,10.95-1.22,16A11.94,11.94,0,0,0,302.87,205.72Z"/><polygon class="cls-3" points="339.57 190.56 340.37 201.73 322.41 201.73 322.41 190.56 339.57 190.56"/><polygon class="cls-3" points="316.43 194.15 316.54 194.13 316.03 198.94 306.06 198.94 306.06 194.15 316.43 194.15"/><path class="cls-3" d="M302.87,205.72c.39,1.2,41.49-.4,41.89-.8a8.76,8.76,0,0,0,.87-1.59H302.84A11.94,11.94,0,0,0,302.87,205.72Z"/><path class="cls-5" d="M296.51,76.56a10.45,10.45,0,0,1-6,4.15c-4.22,1.13,0,7.47,0,7.47a3.91,3.91,0,0,1,.67-4.75C293.31,81,296.84,79.32,296.51,76.56Z"/><circle class="cls-5" cx="289.69" cy="89.7" r="5.33"/><path class="cls-2" d="M296.5,94.17c-4.35-1.64-11.59-2.48-15.31-1.91l.51-3.73c3.58,1.85,10.79,2.72,15.31,1.91Z"/><path class="cls-5" d="M288.09,95.5S282.64,104.57,270,108s-.1,22.43-.1,22.43-4.57-6.93,2-14.26S289.08,103.79,288.09,95.5Z"/><path class="cls-5" d="M288.52,95s5.23,12.45,11,13.63,5.31,20.84-3.68,23.79c0,0,6.56-11.53.95-19.26S287.64,99.26,288.52,95Z"/><path class="cls-3" d="M290.34,209.37a47.59,47.59,0,0,0-2.77,5.42c-.16.63-1.89.27-4.61-.76-5.46-2.06-14.92-6.79-23.75-11.52a7.89,7.89,0,0,1-1.15-.76c.06-.37.13-.75.21-1.13,2.17-10.85-1.24-36.83-.71-46.87l4-1.34,8,7.56v32.14s20.8,11.34,22.21,12.29C292.55,204.88,291.55,207.08,290.34,209.37Z"/><path class="cls-4" d="M307.89,183.6l12.76,6.62s7.56-8,12.29-1.89-13.71,8-13.71,8-16.06-3.78-16.54-9S307.89,183.6,307.89,183.6Z"/><path class="cls-4" d="M286.62,201.09l7.57,1.89s8.5-10.4,17.48-6.62-11.34,11.34-11.34,11.34-10.87,5.68-15.12,1S286.62,201.09,286.62,201.09Z"/><path class="cls-2" d="M303.17,138.71c.47.47,5.67,4.25,5.67,4.25s1.41,18-.48,21.74-3.3,3.78-1.89,5.67,3.31.47,1.42,3.78-3.78,2.84-2.36,4.25.94,1.89.94,1.89l5.67,4.73s-3.47,5.54-7.88,5.13-8.18-21.67-8.18-21.67Z"/><path class="cls-2" d="M261.58,150.05l-4.26,1.42s-11.34,41.58,1.89,48.67,27.89,14.18,28.36,12.29,5.67-9.45,4.25-10.4-22.21-12.28-22.21-12.28V157.61Z"/><polygon class="cls-3" points="267.96 167.3 267.01 189.98 292.06 201.8 268.9 189.98 267.96 167.3"/><path class="cls-2" d="M478.78,218.17c-9.52,5.62-13.27,16.91-13.27,16.91s11.69,2.18,21.22-3.44S500,214.74,500,214.74,488.31,212.55,478.78,218.17Z"/><path class="cls-8" d="M482.12,221.65c-5.34,9.69-16.51,13.77-16.51,13.77s-2.53-11.63,2.81-21.31,16.51-13.77,16.51-13.77S487.45,212,482.12,221.65Z"/><circle class="cls-8" cx="10.39" cy="107.75" r="1.89"/><circle class="cls-8" cx="15.59" cy="107.75" r="1.89"/><circle class="cls-8" cx="20.79" cy="107.75" r="1.89"/><rect class="cls-9" x="37.33" y="179.05" width="27.41" height="2.84"/><rect class="cls-9" x="37.33" y="185.2" width="25.93" height="2.84"/><rect class="cls-9" x="37.33" y="191.34" width="18.89" height="2.84"/><g class="cls-10"><rect class="cls-8" x="101.13" y="179.05" width="27.41" height="2.84"/><rect class="cls-8" x="101.13" y="185.2" width="25.93" height="2.84"/><rect class="cls-8" x="101.13" y="191.34" width="18.89" height="2.84"/><rect class="cls-9" x="101.13" y="179.05" width="27.41" height="2.84"/><rect class="cls-9" x="101.13" y="185.2" width="25.93" height="2.84"/><rect class="cls-9" x="101.13" y="191.34" width="18.89" height="2.84"/></g><rect class="cls-9" x="167.29" y="179.05" width="27.41" height="2.84"/><rect class="cls-9" x="167.29" y="185.2" width="25.93" height="2.84"/><rect class="cls-9" x="167.29" y="191.34" width="18.89" height="2.84"/><rect class="cls-9" x="33.55" y="142.19" width="34.97" height="31.19"/><rect class="cls-2" x="97.35" y="142.19" width="34.97" height="31.19"/><rect class="cls-2" x="163.51" y="142.19" width="34.97" height="31.19"/><path class="cls-8" d="M110.28,173.25h-.46c0-.51.3-12.55,5-15.88l.26.38C110.57,160.93,110.28,173.13,110.28,173.25Z"/><circle class="cls-8" cx="117.3" cy="154.9" r="2.31"/><path class="cls-8" d="M116.83,163.05a7.26,7.26,0,0,1-3.7.16,6.53,6.53,0,0,1,6.72-2.31A7.15,7.15,0,0,1,116.83,163.05Z"/><path class="cls-8" d="M176.44,173.25H176c0-.51.3-12.55,5-15.88l.27.38C176.74,160.93,176.45,173.13,176.44,173.25Z"/><circle class="cls-8" cx="183.46" cy="154.9" r="2.31"/><path class="cls-8" d="M183,163.05a7.26,7.26,0,0,1-3.7.16A6.55,6.55,0,0,1,186,160.9,7.18,7.18,0,0,1,183,163.05Z"/><path class="cls-6" d="M229.2,233.46H2.83V102.55H229.2ZM3.78,232.52H228.26v-129H3.78Z"/><rect class="cls-6" x="3.31" y="112.04" width="225.43" height="0.95"/></g></g></svg>