<svg xmlns="http://www.w3.org/2000/svg" xmlns:xlink="http://www.w3.org/1999/xlink" viewBox="0 0 500 366.57"><defs><style>.cls-1,.cls-5{fill:#2180ce;}.cls-1,.cls-10,.cls-2{opacity:0.1;}.cls-1,.cls-16,.cls-19,.cls-2,.cls-9{isolation:isolate;}.cls-3{fill:#f5f5fb;}.cls-4{fill:#f7f7fd;}.cls-6{fill:none;stroke:#565987;stroke-miterlimit:10;}.cls-7{fill:#ffd037;}.cls-8{fill:#a8a8a8;}.cls-9{opacity:0.2;}.cls-11{fill:url(#linear-gradient);}.cls-12{fill:#db8b8b;}.cls-13{fill:#c17174;}.cls-14{fill:#474463;}.cls-15{fill:#ff748e;}.cls-16{opacity:0.05;}.cls-17{fill:#464353;}.cls-18{fill:#fc6681;}.cls-19{fill:#3acc6c;opacity:0.7;}</style><linearGradient id="linear-gradient" x1="927.99" y1="33.15" x2="927.99" y2="167.01" gradientTransform="translate(1276.24 305.63) rotate(180)" gradientUnits="userSpaceOnUse"><stop offset="0" stop-color="gray" stop-opacity="0.25"/><stop offset="0.54" stop-color="gray" stop-opacity="0.12"/><stop offset="1" stop-color="gray" stop-opacity="0.1"/></linearGradient></defs><g id="Layer_2" data-name="Layer 2"><g id="_0b9b7173-8d17-4004-875f-329f7c0a9383" data-name="0b9b7173-8d17-4004-875f-329f7c0a9383"><path class="cls-1" d="M163.09,232.58c16.54-6.51,42.5-7.83,66.12-7.31,74.22,1.62,141.22,17.43,199.17,35.31,21,6.48,41.63,13.46,55.25,22.37,27.72,18.15,19.5,43.29-19.05,58.24-13.12,5.08-29,9-45.34,12.44-29,6.14-60.33,11.08-93.27,12.5-23.48,1-47.26.18-70.61-1.22-65.25-3.91-129.28-12.52-183-27.31-23.54-6.48-45.73-14.53-55.42-25s-3.49-23.75,20.55-30c9.94-2.56,21.82-3.72,33.46-4.8,17.13-1.61,34.54-3.19,50-6.44,16-3.37,34.88-9.87,31.72-17.31C149.29,246.08,146.57,239.07,163.09,232.58Z"/><path class="cls-2" d="M238.45,14.27,236.65,119s65.33,0,120.91,18l1.09-105.79S269.49,9.94,238.45,14.27Z"/><path class="cls-3" d="M237.5,12.85l-1.8,104.69s65.33,0,120.91,18L357.7,29.8S268.54,8.52,237.5,12.85Z"/><path class="cls-2" d="M210.63,14.19l1.8,104.69s-65.33,0-120.92,18.05L90.43,31.17S179.58,9.86,210.63,14.19Z"/><path class="cls-3" d="M211.57,12.77l1.81,104.69s-65.33,0-120.92,18L91.38,29.75S180.53,8.44,211.57,12.77Z"/><path class="cls-2" d="M374.42,46.15V149.74s21.31-2.52,66.05,52.7l4-103.59S397.88,48.68,374.42,46.15Z"/><path class="cls-3" d="M373.47,45.2V148.79s21.32-2.52,66,52.7l4-103.59S396.93,47.73,373.47,45.2Z"/><path class="cls-2" d="M75.82,49.22v103.6s-21.32-2.52-66,52.7l-4-103.59S52.36,51.76,75.82,49.22Z"/><path class="cls-3" d="M76.77,47.8V151.4s-21.32-2.53-66,52.7l-4-103.6S53.31,50.34,76.77,47.8Z"/><path class="cls-4" d="M316.46,222.49c0,3.53-22.41,23.92-73.42,23.92S164.4,226.73,164.4,223.2,193,228.41,244,228.41,316.46,219,316.46,222.49Z"/><ellipse class="cls-1" cx="149.74" cy="173.14" rx="5.43" ry="0.74"/><ellipse class="cls-1" cx="128.95" cy="175.25" rx="5.43" ry="0.74"/><ellipse class="cls-1" cx="104.47" cy="172.39" rx="5.43" ry="0.74"/><ellipse class="cls-1" cx="137.27" cy="181.25" rx="3.86" ry="0.53"/><ellipse class="cls-1" cx="115.7" cy="180.72" rx="3.86" ry="0.53"/><path class="cls-5" d="M128.84,175.08s7.6-25-1.2-34.94c-6.58-7.48-14.07-6.6-17.38-5.65a6.22,6.22,0,0,0-4,3.31c-1.17,2.53-.94,6.64,7.31,11.41,13.83,8,14.68,19,14.68,19Z"/><path class="cls-6" d="M111.43,138s22.44,7,17.41,37.06"/><path class="cls-6" d="M124.54,140.54s-3.09,2.08-2.11,5.21"/><path class="cls-6" d="M113.68,142.39a3.91,3.91,0,0,1,4.19-.86"/><path class="cls-6" d="M122.57,152.05s3.32-1.68,4.18.42"/><path class="cls-6" d="M130.76,155.56s-2.5-.2-2.54,1"/><path class="cls-5" d="M129.14,175.28s-8.91-18.14-11.36-17.74c-1.16.19-1.7,1.33-2,2.49a7.27,7.27,0,0,0,.48,4.41A19.62,19.62,0,0,0,129.14,175.28Z"/><path class="cls-6" d="M117.84,161s9.35,13.57,11.16,14.17"/><line class="cls-6" x1="116.99" y1="163.1" x2="119.17" y2="163.1"/><line class="cls-6" x1="119.6" y1="168.06" x2="123.02" y2="168.21"/><line class="cls-6" x1="121.69" y1="164.09" x2="121.31" y2="165.88"/><line class="cls-6" x1="125.33" y1="169.52" x2="125.26" y2="171.14"/><path class="cls-5" d="M128.88,175.28s8.91-18.14,11.37-17.74c1.16.19,1.7,1.33,1.94,2.49a7.34,7.34,0,0,1-.47,4.41A19.65,19.65,0,0,1,128.88,175.28Z"/><path class="cls-6" d="M140.17,161s-9.35,13.57-11.16,14.17"/><line class="cls-6" x1="141.03" y1="163.1" x2="138.85" y2="163.1"/><line class="cls-6" x1="138.42" y1="168.06" x2="134.99" y2="168.21"/><line class="cls-6" x1="136.34" y1="164.09" x2="136.71" y2="165.88"/><line class="cls-6" x1="132.7" y1="169.52" x2="132.76" y2="171.14"/><path class="cls-5" d="M113.57,179.51a1.5,1.5,0,0,1-.5-.76.66.66,0,0,1,.35-.78c.32-.13.68.1,1,.33a1.32,1.32,0,0,0,.91.44,1.41,1.41,0,0,1-.43-1.3.66.66,0,0,1,.12-.27c.18-.19.51-.11.73.05a2.72,2.72,0,0,1,.88,2.26,5,5,0,0,0,0-.95.94.94,0,0,1,.35-.83,1.06,1.06,0,0,1,.53-.12,1.1,1.1,0,0,1,.87.24.89.89,0,0,1,0,1.07,3.21,3.21,0,0,1-.89.71,1.87,1.87,0,0,0-.64.61.54.54,0,0,0-.05.11h-1.94A5.62,5.62,0,0,1,113.57,179.51Z"/><path class="cls-5" d="M147.54,172.21a1.58,1.58,0,0,1-.51-.76.69.69,0,0,1,.36-.79,1,1,0,0,1,.94.34,1.27,1.27,0,0,0,.91.43,1.41,1.41,0,0,1-.43-1.3.58.58,0,0,1,.13-.26c.18-.19.5-.11.72,0a2.67,2.67,0,0,1,.88,2.27,3.78,3.78,0,0,0,0-1,.94.94,0,0,1,.35-.83,1.08,1.08,0,0,1,.53-.12,1.07,1.07,0,0,1,.87.25.87.87,0,0,1,0,1.06,3.25,3.25,0,0,1-.9.71,2.19,2.19,0,0,0-.64.61,1.17,1.17,0,0,1-.05.11h-1.94A5.32,5.32,0,0,1,147.54,172.21Z"/><path class="cls-5" d="M136.22,179.51a1.52,1.52,0,0,1-.51-.76.68.68,0,0,1,.36-.78c.32-.13.67.1.94.33a1.32,1.32,0,0,0,.91.44,1.38,1.38,0,0,1-.42-1.3.54.54,0,0,1,.11-.27c.18-.19.51-.11.73.05a2.67,2.67,0,0,1,.88,2.26,3.78,3.78,0,0,0,0-.95,1,1,0,0,1,.36-.83,1.41,1.41,0,0,1,1.39.12.86.86,0,0,1,0,1.07,3.11,3.11,0,0,1-.9.71,2.32,2.32,0,0,0-.64.61s0,.08,0,.11h-1.94A5.39,5.39,0,0,1,136.22,179.51Z"/><path class="cls-5" d="M104.1,164.75s-.72.95.34,2.37,1.94,2.65,1.58,3.54c0,0-1.6-2.66-2.91-2.7S102.68,166.35,104.1,164.75Z"/><path class="cls-2" d="M104.1,164.75a1.4,1.4,0,0,0-.15.3c-1.27,1.49-2,2.89-.73,2.92s2.51,2.08,2.85,2.59c0,0,0,.08,0,.12s-1.61-2.67-2.91-2.71S102.68,166.35,104.1,164.75Z"/><path class="cls-7" d="M102.76,166c0,.34,0,.61.09.61s.08-.27.08-.61,0-.17-.09-.17S102.76,165.63,102.76,166Z"/><path class="cls-7" d="M102.3,166.36c.29.16.55.26.57.22s-.2-.21-.47-.36-.18-.05-.2,0S102,166.23,102.3,166.36Z"/><path class="cls-5" d="M108,164.75s.73.95-.34,2.37-1.94,2.65-1.58,3.54c0,0,1.6-2.66,2.91-2.7S109.39,166.35,108,164.75Z"/><path class="cls-2" d="M108,164.75a1,1,0,0,1,.14.3c1.28,1.49,2,2.89.73,2.92s-2.5,2.08-2.84,2.59a.56.56,0,0,0,0,.12s1.6-2.67,2.91-2.71S109.39,166.35,108,164.75Z"/><path class="cls-7" d="M109.31,166c0,.34,0,.61-.08.61s-.08-.27-.08-.61,0-.17.09-.17S109.31,165.63,109.31,166Z"/><path class="cls-7" d="M109.78,166.36c-.29.16-.54.26-.56.22s.19-.21.47-.36.18-.05.2,0S110.06,166.23,109.78,166.36Z"/><path class="cls-8" d="M109.08,170.56a7.62,7.62,0,0,1-2.65-.5c-.61-.44-3.13-.95-3.28-.26s-3.05,3.48-.76,3.5a19.58,19.58,0,0,0,6-.73C109,172.2,109.08,170.56,109.08,170.56Z"/><path class="cls-9" d="M102.35,173.05c2.29,0,5.34-.35,6-.73s.65-1.3.71-1.77h.07s-.13,1.64-.75,2-3.64.75-5.94.73c-.66,0-.89-.24-.88-.59C101.6,172.92,101.86,173.05,102.35,173.05Z"/><ellipse class="cls-1" cx="92.45" cy="235.14" rx="16.45" ry="2.43"/><ellipse class="cls-1" cx="138.39" cy="255.26" rx="16.45" ry="2.43"/><ellipse class="cls-1" cx="70.81" cy="278.16" rx="16.45" ry="2.43"/><ellipse class="cls-1" cx="419.29" cy="328.44" rx="16.45" ry="2.43"/><ellipse class="cls-1" cx="232.63" cy="272.53" rx="10.89" ry="1.22"/><ellipse class="cls-1" cx="388.48" cy="210" rx="10.89" ry="1.22"/><ellipse class="cls-1" cx="303.68" cy="302.37" rx="10.89" ry="1.22"/><ellipse class="cls-1" cx="209.68" cy="294.34" rx="10.89" ry="1.22"/><ellipse class="cls-1" cx="121.58" cy="291.18" rx="10.89" ry="1.22"/><ellipse class="cls-1" cx="98.63" cy="312.99" rx="10.89" ry="1.22"/><g class="cls-10"><ellipse cx="241.02" cy="113.45" rx="72.06" ry="32.16"/><path d="M314.33,125c-3.19,16.77-34.69,29.93-73.09,29.93-38.73,0-70.45-13.4-73.17-30.37h-.27v27.33c12.67,13.23,40.71,22.44,73.26,22.44s60.6-9.21,73.27-22.44Z"/><path d="M314.33,158.2c-3.19,16.77-34.69,29.93-73.09,29.93-38.73,0-70.45-13.39-73.17-30.37h-.27v27.33c12.67,13.24,40.71,22.44,73.26,22.44s60.6-9.2,73.27-22.44Z"/><path d="M314.33,194.78c-3.19,16.76-34.69,29.93-73.09,29.93-38.73,0-70.45-13.39-73.17-30.37h-.27v29.47a4.57,4.57,0,0,0,1.46,3.35c13.26,12.18,40.45,17,71.8,17s58.53-4.77,71.81-17a4.57,4.57,0,0,0,1.46-3.35Z"/></g><ellipse class="cls-5" cx="241.02" cy="111.56" rx="72.06" ry="32.16"/><path class="cls-5" d="M314.33,123.05C311.14,139.82,279.64,153,241.24,153c-38.73,0-70.45-13.4-73.17-30.37h-.27v27.32c12.67,13.24,40.71,22.44,73.26,22.44s60.6-9.2,73.27-22.44Z"/><path class="cls-5" d="M314.33,156.31c-3.19,16.76-34.69,29.93-73.09,29.93-38.73,0-70.45-13.4-73.17-30.37h-.27V183.2c12.67,13.23,40.71,22.43,73.26,22.43s60.6-9.2,73.27-22.43Z"/><path class="cls-5" d="M314.33,192.88c-3.19,16.77-34.69,29.93-73.09,29.93-38.73,0-70.45-13.39-73.17-30.36h-.27v29.47a4.55,4.55,0,0,0,1.46,3.34c13.26,12.18,40.45,17,71.8,17s58.53-4.77,71.81-17a4.55,4.55,0,0,0,1.46-3.34Z"/><ellipse class="cls-1" cx="347.24" cy="270.6" rx="27" ry="4.86"/><path class="cls-11" d="M332.08,208.67c1.36.81,3.5,1.34,6.2-.4l0,3.84c.19,2.64,3.45,12.24,3.45,12.24l2.3,7.9a61.69,61.69,0,0,1,2.53,17.18,16.6,16.6,0,0,0,.73,5.41c1.23,3.32-.47,7.58-1.22,9.15a38,38,0,0,1-3.79,1.07l-.33.1v0s-3.45,1.37-5,1.18a1.33,1.33,0,0,0-.94,2.33,7.18,7.18,0,0,1-2.3.31c-1.53-.19-2.3,2.44.58,3.19s19.16,0,19.16,0a2.29,2.29,0,0,0,1.22-2.54l2-.09s2.88-1.32,0-4.89l-.16.11-.61-1.81v-2.44s3.65-17.52,2.5-19.58-1.77-12.63-1.77-12.63l.41-11.46a27.47,27.47,0,0,0,1.83-8.14,16.8,16.8,0,0,0,.74-3.85c.05-.62.08-1.27.11-1.94a13.07,13.07,0,0,0-.7-4.34,43.78,43.78,0,0,1,4.34-5.45,5.6,5.6,0,0,0,1.73-4.89l-.95-6.4-2.3-10.89c.29-3-.34-4.77-1-5.76.16-1,.32-2,.44-2.94a37.67,37.67,0,0,0-.68-12.79,8.61,8.61,0,0,0-1.81-4.07c-1.16-1.26-3-2-3.48-3.67a8.85,8.85,0,0,0-.27-1.24c-.42-1.07-1.74-1.47-2.91-1.61-2.07-.25-5.07-.44-7.07.38A8.56,8.56,0,0,0,341,143a2.89,2.89,0,0,0-.15,3.15A7.3,7.3,0,0,0,345,155.5a3.86,3.86,0,0,1,.12.42,7.18,7.18,0,0,1,.19,1c0,.66-.08,1.33-.11,2l-.07.27a50.7,50.7,0,0,0-4.82,2.45c1.15,1.7-.19,8.85-.19,8.85-2.88,1.69-5.75,6-2.68,10.54a11.3,11.3,0,0,1,1.34,9.41l-.48,7.36h0l-.09,1.47h0l0,.56h.08v.6a9,9,0,0,0-4.49,3.34,11.29,11.29,0,0,1-2,2.46,1.49,1.49,0,0,0-.16,2.09A1.38,1.38,0,0,0,332.08,208.67Zm23.14-19.55a6.94,6.94,0,0,1,.68-3.7h1.35c0,.29.1.59.17.89C357.81,188,356.25,188.78,355.22,189.12Z"/><path class="cls-12" d="M355.6,262.07l.74,2.21-2.4,2.4L346,268.54l-5.72-.55.37-2h0a2.44,2.44,0,0,1,1.82-1.79c2.36-.55,6.83-1.81,7.77-3.55Z"/><path class="cls-2" d="M355.6,262.07l.74,2.21-2.4,2.4L346,268.54l-5.72-.55.37-2h0a2.44,2.44,0,0,1,1.82-1.79c2.36-.55,6.83-1.81,7.77-3.55Z"/><path class="cls-13" d="M342.13,267.42l1.11-1.48-1.11-1.71s-3.31,1.34-4.79,1.16-2.21,2.4.55,3.14,18.45,0,18.45,0,2.76-1.3,0-4.8l-2.4,1.84s-4.06,2.22-6.09,1.85Z"/><path class="cls-12" d="M337.16,270.55l5.72.56,7.93-1.85,2.39-2.4-.19-.58-.27-.82-.27-.81-5.36-1.47a3.31,3.31,0,0,1-1.09,1.08,22.84,22.84,0,0,1-6.69,2.48.94.94,0,0,0-.22.07,2.37,2.37,0,0,0-.95.57,2.32,2.32,0,0,0-.65,1.15Z"/><path class="cls-2" d="M337.16,270.55l5.72.56,7.93-1.85,2.39-2.4-.19-.58-2.2,1.69s-4.06,2.21-6.09,1.84H339l1.11-1.47-1-1.53a2.44,2.44,0,0,0-.95.57,2.4,2.4,0,0,0-.65,1.15Z"/><path class="cls-13" d="M339,270l1.11-1.47L339,266.82s-3.32,1.34-4.8,1.15-2.21,2.4.56,3.14,18.44,0,18.44,0,2.77-1.3,0-4.8l-2.4,1.85s-4.06,2.21-6.08,1.84Z"/><path class="cls-12" d="M343.61,163s8.85,1,7.58-2.77a6.57,6.57,0,0,1-.28-3.26,9,9,0,0,1,1.56-3.74l-8.29,1.28a10.8,10.8,0,0,1,1.12,2.67A5.47,5.47,0,0,1,343.61,163Z"/><path class="cls-14" d="M358.73,205.07s-.18,7.93-2,11.8l-.36,11.25s.54,10.33,1.65,12.36-2.39,19.18-2.39,19.18v2.95s-5.91,2.21-7.58-.37l1.66-22-.74-30.42Z"/><path class="cls-2" d="M358.73,205.07s-.18,7.93-2,11.8l-.36,11.25s.54,10.33,1.65,12.36-2.39,19.18-2.39,19.18v2.95s-5.91,2.21-7.58-.37l1.66-22-.74-30.42Z"/><path class="cls-15" d="M362.42,179.64l1.11,3,.94,6.26a5.55,5.55,0,0,1-1.66,4.8,53.46,53.46,0,0,0-5.16,6.82L354.15,190s3.5-.55,2.94-3a34.26,34.26,0,0,1-.36-6.82Z"/><path class="cls-16" d="M362.46,179.59l1.1,2.95.95,6.28a5.51,5.51,0,0,1-1.66,4.79,52.58,52.58,0,0,0-5.16,6.83l-3.53-10.53s3.51-.55,2.95-2.95a34.65,34.65,0,0,1-.37-6.83Z"/><path class="cls-2" d="M346,264.28c2.37,3.72,6.05,1.61,6.7,1.2l-.27-.81-5.35-1.49A3.34,3.34,0,0,1,346,264.28Z"/><path class="cls-14" d="M338.63,212.28c.18,2.58,3.31,12,3.31,12l2.22,7.74a61.93,61.93,0,0,1,2.43,16.84,16.42,16.42,0,0,0,.7,5.3c1.48,4.06-1.47,9.59-1.47,9.59,2.58,4.61,7,1.48,7,1.48v-3s3.5-16,2.58-19.18-1.29-11.61-1.29-11.61V216.15a17.37,17.37,0,0,0,5.06-11c0-.61.08-1.24.1-1.89.15-4.16-2.7-9-3.79-10.78-.26-.42-.43-.66-.43-.66l-16.28,6.46h0v2Z"/><path class="cls-2" d="M344.16,154.55a10.46,10.46,0,0,1,1.13,2.67,7.19,7.19,0,0,0,5.61-.21,9,9,0,0,1,1.56-3.74Z"/><circle class="cls-12" cx="347.85" cy="150.13" r="7.19"/><path class="cls-2" d="M338.63,200.29h.08c7.73,1.59,17.44-6.47,17.44-6.47a10.21,10.21,0,0,1-.67-1.37c-.27-.42-.44-.66-.44-.66l-16.28,6.46,0,.65Z"/><path class="cls-15" d="M340.66,162.85s10.33-6.27,13.64-3.69l4.62,5.91s2.95.92,2.4,6.84l2.21,10.7-6.63,1.65a7.27,7.27,0,0,0-.74,9s-9.77,8.12-17.52,6.45l.55-8.66a11.23,11.23,0,0,0-1.29-9.22c-2.94-4.43-.18-8.67,2.59-10.33C340.48,171.52,341.76,164.51,340.66,162.85Z"/><path class="cls-12" d="M340.11,200.47s-3.88.74-5.72,3.69a11.54,11.54,0,0,1-1.93,2.42,1.46,1.46,0,0,0-.1,2.06,2.16,2.16,0,0,0,.33.27c1.46.88,3.84,1.42,6.86-1.06C344.74,203.61,340.11,200.47,340.11,200.47Z"/><path class="cls-2" d="M345.82,166.36s3.69-.37,4.61,9.22,2.4,11.8,2.4,11.8.92,5-1.29,7.93-6.45,9.22-6.45,9.22-4.61,1.29-5.54-3.31l5.72-10.7s.92-3.69-1.29-6.27S340.11,164.51,345.82,166.36Z"/><path class="cls-15" d="M345.45,165.8s3.69-.37,4.61,9.23,2.4,11.8,2.4,11.8,1,5-1.29,7.93-6.43,9.22-6.43,9.22-4.61,1.29-5.53-3.32L344.92,190s.93-3.69-1.29-6.27S339.74,164,345.45,165.8Z"/><path class="cls-2" d="M342.41,172.72s-.37,5.72,1.29,8.85,1.66,7.19,0,9.41"/><path class="cls-2" d="M341.49,165.71s1.47-1.47,5.72-1.66,6.08-1.47,6.08-1.47"/><path class="cls-2" d="M351.75,140.84c1.12.13,2.4.52,2.8,1.57a10.18,10.18,0,0,1,.26,1.22c.42,1.61,2.23,2.36,3.35,3.59a8.62,8.62,0,0,1,1.74,4,37.43,37.43,0,0,1,.65,12.53c-.36,3-1.1,6.07-1.3,9.14a14.5,14.5,0,0,0,1.85,8.88,21.83,21.83,0,0,1,2.18,3.32,6.36,6.36,0,0,1-3.87,1q-2.37.07-4.77,0a5,5,0,0,1-2.41-.51,3.76,3.76,0,0,1-1.27-1.36,9.71,9.71,0,0,1-1.1-5.18c0-1.78.32-3.56.36-5.35a4.64,4.64,0,0,0-.63-2.8,8.71,8.71,0,0,0-1.54-1.43c-2-1.75-2.65-4.55-2.72-7.19s.37-5.28.15-7.91c-.09-1-.48-2.26-1.48-2.46a5,5,0,0,1-.95-.12c-.81-.32-.73-1.46-.95-2.3s-1.06-1.67-1.29-2.62c-.53-2.23,2.31-4.89,4.17-5.68S349.75,140.59,351.75,140.84Z"/><path class="cls-17" d="M351.93,140.47c1.12.13,2.4.52,2.8,1.57a8.55,8.55,0,0,1,.26,1.22c.42,1.61,2.24,2.36,3.35,3.59a8.53,8.53,0,0,1,1.75,4,37.5,37.5,0,0,1,.64,12.54c-.35,3.06-1.09,6.07-1.3,9.15a14.5,14.5,0,0,0,1.85,8.88,21.08,21.08,0,0,1,2.19,3.31,6.34,6.34,0,0,1-3.88,1c-1.58.05-3.17.05-4.76,0a5,5,0,0,1-2.42-.5,3.76,3.76,0,0,1-1.27-1.36,9.82,9.82,0,0,1-1.1-5.18c0-1.79.33-3.56.36-5.35a4.77,4.77,0,0,0-.62-2.8,9.47,9.47,0,0,0-1.54-1.43c-2-1.75-2.66-4.55-2.72-7.19s.37-5.28.14-7.91c-.08-1-.47-2.26-1.48-2.46a5,5,0,0,1-.95-.12c-.81-.32-.73-1.46-.94-2.3s-1.07-1.66-1.3-2.62c-.53-2.23,2.31-4.89,4.18-5.68S350,140.22,351.93,140.47Z"/><path class="cls-8" d="M60.65,271.32s5.08-.16,6.61-1.25,7.8-2.39,8.18-.64,7.63,8.69,1.9,8.74-13.31-.9-14.84-1.83S60.65,271.32,60.65,271.32Z"/><path class="cls-9" d="M77.44,277.55c-5.73,0-13.31-.9-14.84-1.82-1.16-.71-1.62-3.25-1.78-4.43h-.17s.32,4.09,1.85,5,9.11,1.87,14.84,1.83c1.65,0,2.22-.6,2.19-1.48C79.3,277.22,78.67,277.55,77.44,277.55Z"/><path class="cls-8" d="M383.19,204.69s3.48-.1,4.53-.85,5.36-1.64,5.62-.44,5.24,6,1.3,6-9.13-.61-10.18-1.25S383.19,204.69,383.19,204.69Z"/><path class="cls-9" d="M394.71,209c-3.93,0-9.13-.62-10.18-1.25-.8-.48-1.12-2.23-1.22-3h-.12s.22,2.81,1.27,3.45,6.25,1.28,10.18,1.25c1.14,0,1.53-.41,1.51-1C396,208.75,395.56,209,394.71,209Z"/><circle class="cls-1" cx="14.82" cy="10.25" r="10.25"/><circle class="cls-1" cx="455.36" cy="39.62" r="10.25"/><circle class="cls-1" cx="7.58" cy="50.3" r="7.58"/><circle class="cls-1" cx="84.32" cy="7.66" r="7.58"/><circle class="cls-1" cx="395.07" cy="8.61" r="7.58"/><path class="cls-18" d="M421.41,306.2s1.9,2.48-.87,6.23-5.06,6.9-4.14,9.24c0,0,4.18-6.95,7.58-7.05S425.15,310.39,421.41,306.2Z"/><path class="cls-2" d="M421.41,306.2a2.85,2.85,0,0,1,.39.78c3.31,3.9,5.09,7.55,1.89,7.64-3,.08-6.54,5.4-7.4,6.75a1.82,1.82,0,0,0,.11.3s4.18-6.95,7.57-7.05S425.15,310.39,421.41,306.2Z"/><path class="cls-7" d="M424.94,309.36c0,.88-.1,1.59-.22,1.59s-.22-.71-.22-1.59.12-.47.24-.47S424.94,308.49,424.94,309.36Z"/><path class="cls-7" d="M426.15,310.41c-.77.41-1.42.66-1.5.56s.52-.53,1.29-1,.47-.11.52,0S426.92,310,426.15,310.41Z"/><path class="cls-18" d="M411.39,306.2s-1.9,2.48.88,6.23,5.05,6.9,4.13,9.24c0,0-4.19-6.95-7.58-7.05S407.64,310.39,411.39,306.2Z"/><path class="cls-2" d="M411.39,306.2a2.85,2.85,0,0,0-.39.78c-3.32,3.9-5.09,7.55-1.89,7.64,3,.08,6.54,5.4,7.39,6.75,0,.1-.06.2-.09.3s-4.19-6.95-7.58-7.05S407.64,310.39,411.39,306.2Z"/><path class="cls-7" d="M407.86,309.36c0,.88.1,1.59.22,1.59s.22-.71.22-1.59-.12-.47-.25-.47S407.86,308.49,407.86,309.36Z"/><path class="cls-7" d="M406.65,310.41c.77.41,1.42.66,1.49.56s-.51-.53-1.28-1-.47-.11-.52,0S405.88,310,406.65,310.41Z"/><path class="cls-8" d="M408.47,321.35s5.3-.17,6.9-1.3,8.16-2.5,8.56-.68,8,9.08,2,9.13-13.92-.95-15.51-1.89S408.47,321.35,408.47,321.35Z"/><path class="cls-9" d="M426,327.87c-6,0-13.92-.95-15.52-1.9-1.21-.74-1.7-3.4-1.86-4.62h-.17s.33,4.26,1.93,5.25,9.52,1.95,15.51,1.89c1.73,0,2.32-.63,2.29-1.54C428,327.51,427.3,327.86,426,327.87Z"/><path class="cls-19" d="M149.9,59.67a10,10,0,1,0,9.95,10A10,10,0,0,0,149.9,59.67Zm0,1.93a8.06,8.06,0,1,1-8.05,8.05,8.06,8.06,0,0,1,8.05-8.05m5.63,5.23-.9-.91a.47.47,0,0,0-.67,0h0l-5.69,5.63-2.39-2.43a.47.47,0,0,0-.67,0h0l-.91.9a.48.48,0,0,0,0,.67h0l3.65,3.68a.47.47,0,0,0,.67,0h0l6.93-6.88a.47.47,0,0,0,0-.67h0Z"/><path class="cls-19" d="M39.78,110a9.94,9.94,0,1,0,11.94,7.46A9.94,9.94,0,0,0,39.78,110Zm.43,1.89a8.05,8.05,0,1,1-6,9.67v0a8.06,8.06,0,0,1,6-9.64m6.67,3.84-1.09-.7a.47.47,0,0,0-.66.14h0L40.86,122,38,120.16a.48.48,0,0,0-.66.14h0l-.68,1.09a.46.46,0,0,0,.14.65h0l4.38,2.76a.46.46,0,0,0,.65-.13v0L47,116.42a.47.47,0,0,0-.13-.66h0Z"/><path class="cls-19" d="M294.89,61.11a10,10,0,1,0,9.94,10h0A10,10,0,0,0,294.89,61.11Zm0,1.93a8.06,8.06,0,1,1-8.06,8.05A8.06,8.06,0,0,1,294.89,63m5.63,5.23-.91-.91a.47.47,0,0,0-.67,0h0L293.25,73l-2.4-2.42a.47.47,0,0,0-.67,0h0l-.9.92a.47.47,0,0,0,0,.67h0l3.65,3.67a.47.47,0,0,0,.67,0v0L300.52,69a.47.47,0,0,0,0-.67v0Z"/><path class="cls-19" d="M409,110.24a9.95,9.95,0,1,0,9.14,10.7,9.94,9.94,0,0,0-9.14-10.7Zm-.16,1.92a8.05,8.05,0,1,1-8.63,7.42v0a8,8,0,0,1,8.62-7.39h0m5.21,5.65-.83-1a.47.47,0,0,0-.67-.06h0L406.47,122l-2.21-2.6a.48.48,0,0,0-.67-.07v0l-1,.83a.48.48,0,0,0-.06.67h0l3.35,3.94a.47.47,0,0,0,.67.07h0l7.45-6.32a.47.47,0,0,0,.06-.67Z"/></g></g></svg>