<svg xmlns="http://www.w3.org/2000/svg" viewBox="0 0 500 287.29"><defs><style>.cls-1{fill:#f2f2f2;}.cls-2{fill:#9f50b2;}.cls-3{fill:#3f3d56;}.cls-4{opacity:0.1;isolation:isolate;}</style></defs><g id="Layer_2" data-name="Layer 2"><g id="b6117b06-2b45-45bc-b789-4a82ab6612dd"><circle class="cls-1" cx="108.34" cy="229.01" r="26"/><circle class="cls-2" cx="112.56" cy="225.21" r="26"/><rect class="cls-3" x="133.51" y="196.43" width="321.73" height="0.88"/><path class="cls-3" d="M300.13,8.19H185.93V5.83H134.16V8.19H19.49a7.72,7.72,0,0,0-7.72,7.72h0V172.28A7.72,7.72,0,0,0,19.49,180H300.13a7.72,7.72,0,0,0,7.72-7.72V15.91a7.72,7.72,0,0,0-7.72-7.72Z"/><rect class="cls-2" x="22.12" y="21.84" width="275.37" height="155.34"/><circle class="cls-2" cx="159.57" cy="14.78" r="2.82"/><polygon class="cls-4" points="218.74 177.18 22.12 177.18 22.12 21.84 218.74 177.18"/><circle class="cls-1" cx="65.21" cy="139.08" r="26.47"/><rect class="cls-3" x="223.83" y="105.61" width="25.72" height="5.37"/><rect class="cls-3" x="192.73" y="63.77" width="87.92" height="2.3"/><rect class="cls-3" x="192.73" y="71.06" width="87.92" height="2.3"/><rect class="cls-3" x="192.73" y="78.35" width="87.92" height="2.3"/><rect class="cls-3" x="192.73" y="85.65" width="87.92" height="2.3"/><rect class="cls-3" x="192.73" y="92.94" width="87.92" height="2.3"/><rect class="cls-1" x="269.9" y="24.99" width="10.75" height="10.75"/><path class="cls-3" d="M285.64,40.73H272.58v-13h13.06Zm-12.49-.57h11.92V28.24H273.15Z"/><path class="cls-3" d="M315.58,174.35H288.71v-1.93a.38.38,0,0,0-.38-.39h-9.22a.38.38,0,0,0-.38.39h0v1.93H273v-1.93a.38.38,0,0,0-.39-.39h-9.21a.38.38,0,0,0-.38.39h0v1.93h-5.76v-1.93a.38.38,0,0,0-.39-.39h-9.21a.38.38,0,0,0-.38.39h0v1.93h-5.76v-1.93a.39.39,0,0,0-.39-.39h-9.21a.39.39,0,0,0-.39.39h0v1.93h-5.75v-1.93a.39.39,0,0,0-.39-.39h-9.21a.39.39,0,0,0-.39.38h0v1.93H210v-1.93a.39.39,0,0,0-.39-.39h-9.21a.39.39,0,0,0-.39.39h0v1.93h-5.76v-1.93a.38.38,0,0,0-.38-.39H121.7a.38.38,0,0,0-.38.39h0v1.93h-5.76v-1.93a.38.38,0,0,0-.38-.39H106a.38.38,0,0,0-.38.38h0v1.93H99.82v-1.93a.38.38,0,0,0-.38-.39H90.22a.38.38,0,0,0-.38.38h0v1.93H84.08v-1.93a.38.38,0,0,0-.39-.39H74.48a.38.38,0,0,0-.38.39h0v1.93H68.34v-1.93A.38.38,0,0,0,68,172H58.74a.38.38,0,0,0-.38.38h0v1.93H52.6v-1.93a.38.38,0,0,0-.39-.39H43a.38.38,0,0,0-.38.38h0v1.93H36.86v-1.93a.39.39,0,0,0-.39-.39H27.26a.39.39,0,0,0-.39.38h0v1.93H9.21A9.22,9.22,0,0,0,0,183.57v4.16A9.22,9.22,0,0,0,9.21,197H315.58a9.22,9.22,0,0,0,9.22-9.22v-4.16A9.22,9.22,0,0,0,315.58,174.35Z"/><path class="cls-3" d="M71.62,155.61A33.36,33.36,0,1,1,105,122.26,33.36,33.36,0,0,1,71.62,155.61Zm0-65.83a32.48,32.48,0,1,0,32.48,32.48A32.48,32.48,0,0,0,71.62,89.78Z"/><rect class="cls-3" x="257.28" y="14.28" width="111.92" height="0.88"/><rect class="cls-3" x="178.27" y="246.03" width="321.73" height="0.88"/><rect class="cls-3" x="84.57" y="286.41" width="111.92" height="0.88"/><rect class="cls-2" x="206.73" y="241.4" width="12.29" height="12.29"/><path class="cls-3" d="M226.48,246.67H211.56V231.75h14.92ZM212.21,246h13.62V232.4H212.21Z"/><rect class="cls-2" x="349.38" y="9.66" width="12.29" height="12.29"/><path class="cls-3" d="M369.13,14.92H354.2V0h14.93Zm-14.28-.65h13.63V.65H354.85Z"/><rect class="cls-2" x="473.15" y="241.4" width="12.29" height="12.29"/><path class="cls-3" d="M492.9,246.67H478V231.75H492.9ZM478.63,246h13.62V232.4H478.63Z"/><path class="cls-3" d="M464,101.81h-1V73.21a16.56,16.56,0,0,0-16.56-16.55H385.82a16.56,16.56,0,0,0-16.56,16.55h0v156.9a16.56,16.56,0,0,0,16.56,16.56h60.59A16.56,16.56,0,0,0,463,230.11h0V122.17h1Z"/><path class="cls-2" d="M459.44,74.18V230.86a12.36,12.36,0,0,1-12.36,12.36H386.19a12.36,12.36,0,0,1-12.36-12.36V74.18a12.37,12.37,0,0,1,12.36-12.36h7.39a5.88,5.88,0,0,0,3.22,7.66,6,6,0,0,0,2.22.43h34.71a5.86,5.86,0,0,0,5.44-8.09h7.91A12.36,12.36,0,0,1,459.44,74.18Z"/><rect class="cls-3" x="407.57" y="165.13" width="18.14" height="5.37"/><rect class="cls-3" x="385.64" y="123.28" width="61.99" height="2.3"/><rect class="cls-3" x="385.64" y="130.57" width="61.99" height="2.3"/><rect class="cls-3" x="385.64" y="137.87" width="61.99" height="2.3"/><rect class="cls-3" x="385.64" y="145.16" width="61.99" height="2.3"/><rect class="cls-3" x="385.64" y="152.46" width="61.99" height="2.3"/><rect class="cls-1" x="408.05" y="92.69" width="10.75" height="10.75"/><path class="cls-3" d="M412.17,95.38v13.05h13.05V95.38Zm12.49,12.48H412.73V95.94h11.93Z"/><path class="cls-4" d="M459.44,214.13v16.73a12.36,12.36,0,0,1-12.36,12.36H386.19a12.36,12.36,0,0,1-12.36-12.36V146.49L425.13,187l.88.69,9.54,7.54.89.71Z"/><circle class="cls-1" cx="411.37" cy="218.89" r="19.25"/><path class="cls-3" d="M140.53,287.29a38.19,38.19,0,1,1,38.18-38.19A38.19,38.19,0,0,1,140.53,287.29Zm0-75.49a37.31,37.31,0,1,0,37.31,37.3A37.3,37.3,0,0,0,140.53,211.8Z"/><path class="cls-3" d="M417.05,233.74a24.14,24.14,0,1,1,24.14-24.14A24.14,24.14,0,0,1,417.05,233.74Zm0-47.4a23.26,23.26,0,1,0,23.26,23.26h0A23.29,23.29,0,0,0,417.05,186.34Z"/></g></g></svg>