<svg version="1.1" id="Layer_1" xmlns="http://www.w3.org/2000/svg" xmlns:xlink="http://www.w3.org/1999/xlink" x="0px" y="0px"
	 viewBox="0 0 200 200" style="enable-background:new 0 0 200 200;" xml:space="preserve">
<style type="text/css">
	.st0{fill:#BA494F;}
	.st1{opacity:0.3;fill:#231F20;}
	.st2{opacity:0.27;}
	.st3{fill:#FFFFFF;}
	.st4{fill:#841424;}
	.st5{clip-path:url(#SVGID_2_);}
</style>
<g>
	<rect x="0.1" y="0.6" class="st0" width="199.3" height="198.8"/>
	<polygon class="st1" points="199.4,92.1 161.2,53.8 105.4,53.8 105.4,63.4 130.2,88.2 124.7,95.3 91,61.7 57.1,53.3 25.5,82.1 
		32.1,120.8 110.6,199.4 199.4,199.4 	"/>
	<g>
		<g>
			<g>
				<g class="st2">
					<path class="st3" d="M56.9,171l15.5-14.2v-0.1H58.2v-1.9H77v1.4l-15.4,14.2v0.1h15.6v1.9H56.9V171z"/>
					<path class="st3" d="M97.7,164.1H86.9v6.3H99v1.9H83.3v-17.5h15.1v1.9H86.9v5.5h10.8V164.1z"/>
					<path class="st3" d="M105.3,155.1c1.8-0.2,4.4-0.4,6.9-0.4c3.8,0,6.3,0.4,8.1,1.4c1.4,0.8,2.2,2,2.2,3.3c0,2.3-2.3,3.8-5.3,4.5
						v0.1c2.2,0.5,3.4,1.7,4.1,3.5c0.9,2.4,1.6,4.1,2.2,4.8h-3.7c-0.5-0.5-1.1-2-1.9-4.2c-0.8-2.4-2.3-3.3-5.6-3.4h-3.4v7.6h-3.6
						V155.1z M108.9,163h3.7c3.8,0,6.3-1.3,6.3-3.3c0-2.3-2.6-3.2-6.4-3.3c-1.7,0-3,0.1-3.6,0.2V163z"/>
					<path class="st3" d="M153.1,163.4c0,6-5.8,9.2-12.9,9.2c-7.4,0-12.5-3.6-12.5-8.9c0-5.6,5.5-9.2,12.9-9.2
						C148.2,154.5,153.1,158.2,153.1,163.4z M131.5,163.7c0,3.7,3.2,7.1,8.9,7.1c5.7,0,8.9-3.3,8.9-7.3c0-3.5-2.9-7.1-8.9-7.1
						C134.5,156.4,131.5,159.8,131.5,163.7z"/>
				</g>
				<g>
					<g>
						<path class="st4" d="M55.6,169.7l15.5-14.2v-0.1H56.9v-1.9h18.8v1.4l-15.4,14.2v0.1h15.6v1.9H55.6V169.7z"/>
						<path class="st4" d="M96.5,162.9H85.6v6.3h12.1v1.9H82v-17.5h15.1v1.9H85.6v5.5h10.8V162.9z"/>
						<path class="st4" d="M104,153.8c1.8-0.2,4.4-0.4,6.9-0.4c3.8,0,6.3,0.4,8.1,1.4c1.4,0.8,2.2,2,2.2,3.3c0,2.3-2.3,3.8-5.3,4.5
							v0.1c2.2,0.5,3.4,1.7,4.1,3.5c0.9,2.4,1.6,4.1,2.2,4.8h-3.7c-0.5-0.5-1.1-2-1.9-4.2c-0.8-2.4-2.3-3.3-5.6-3.4h-3.4v7.6H104
							V153.8z M107.6,161.8h3.7c3.8,0,6.3-1.3,6.3-3.3c0-2.3-2.6-3.2-6.4-3.3c-1.7,0-3,0.1-3.6,0.2V161.8z"/>
						<path class="st4" d="M151.9,162.1c0,6-5.8,9.2-12.9,9.2c-7.4,0-12.5-3.6-12.5-8.9c0-5.6,5.5-9.2,12.9-9.2
							C146.9,153.3,151.9,156.9,151.9,162.1z M130.2,162.4c0,3.7,3.2,7.1,8.9,7.1c5.7,0,8.9-3.3,8.9-7.3c0-3.5-2.9-7.1-8.9-7.1
							C133.2,155.1,130.2,158.6,130.2,162.4z"/>
					</g>
				</g>
			</g>
			<g>
				<g class="st2">
					<path class="st3" d="M48.8,40.9c-1.6,0.4-4.8,1-8.6,1c-4.2,0-7.7-0.7-10.4-2.3C27.5,38.1,26,35.7,26,33c0-5.2,5.7-9,15.1-9
						c3.2,0,5.7,0.4,6.9,0.8l-0.9,1.8c-1.5-0.4-3.3-0.8-6.2-0.8c-6.8,0-11.2,2.6-11.2,7c0,4.4,4.3,7.1,10.8,7.1c2.4,0,4-0.2,4.8-0.5
						v-5.2h-5.7v-1.8h9.2V40.9z"/>
					<path class="st3" d="M56,24.4c1.8-0.2,4.4-0.4,6.9-0.4c3.8,0,6.3,0.4,8.1,1.4c1.4,0.8,2.2,2,2.2,3.3c0,2.3-2.3,3.8-5.3,4.5v0.1
						c2.2,0.5,3.4,1.7,4.1,3.5c0.9,2.4,1.6,4.1,2.2,4.8h-3.7c-0.5-0.5-1.1-2-1.9-4.2c-0.8-2.4-2.3-3.3-5.6-3.4h-3.4v7.6H56V24.4z
						 M59.6,32.4h3.7c3.8,0,6.3-1.3,6.3-3.3c0-2.3-2.6-3.2-6.4-3.3c-1.7,0-3,0.1-3.6,0.2V32.4z"/>
					<path class="st3" d="M84.6,36.1l-2.9,5.5H78l9.5-17.5h4.3l9.5,17.5h-3.8l-3-5.5H84.6z M93.7,34.4l-2.7-5
						c-0.6-1.1-1-2.2-1.4-3.2h-0.1c-0.4,1-0.9,2.1-1.4,3.2l-2.7,5.1H93.7z"/>
					<path class="st3" d="M111,41.7l-9.1-17.5h3.9l4.3,8.6c1.2,2.4,2.2,4.5,3,6.5h0.1c0.8-2,1.9-4.2,3.2-6.5l4.7-8.6h3.8l-10,17.5
						H111z"/>
					<path class="st3" d="M133.2,24.2v17.5h-3.6V24.2H133.2z"/>
					<path class="st3" d="M146.4,26.1h-8.5v-1.9h20.6v1.9h-8.5v15.6h-3.6V26.1z"/>
					<path class="st3" d="M170.7,41.7v-7.4l-8.8-10.1h4.1l3.9,4.8c1.1,1.3,1.9,2.4,2.8,3.6h0.1c0.8-1.1,1.7-2.3,2.8-3.6l4-4.8h4.1
						l-9.3,10.1v7.5H170.7z"/>
				</g>
				<g>
					<g>
						<path class="st4" d="M47.6,39.6c-1.6,0.4-4.8,1-8.6,1c-4.2,0-7.7-0.7-10.4-2.3c-2.4-1.5-3.9-3.8-3.9-6.5c0-5.2,5.7-9,15.1-9
							c3.2,0,5.7,0.4,6.9,0.8l-0.9,1.8c-1.5-0.4-3.3-0.8-6.2-0.8c-6.8,0-11.2,2.6-11.2,7c0,4.4,4.3,7.1,10.8,7.1
							c2.4,0,4-0.2,4.8-0.5V33h-5.7v-1.8h9.2V39.6z"/>
						<path class="st4" d="M54.7,23.1c1.8-0.2,4.4-0.4,6.9-0.4c3.8,0,6.3,0.4,8.1,1.4c1.4,0.8,2.2,2,2.2,3.3c0,2.3-2.3,3.8-5.3,4.5
							v0.1c2.2,0.5,3.4,1.7,4.1,3.5c0.9,2.4,1.6,4.1,2.2,4.8h-3.7c-0.5-0.5-1.1-2-1.9-4.2c-0.8-2.4-2.3-3.3-5.6-3.4h-3.4v7.6h-3.6
							V23.1z M58.3,31.1H62c3.8,0,6.3-1.3,6.3-3.3c0-2.3-2.6-3.2-6.4-3.3c-1.7,0-3,0.1-3.6,0.2V31.1z"/>
						<path class="st4" d="M83.3,34.9l-2.9,5.5h-3.7l9.5-17.5h4.3l9.5,17.5h-3.8l-3-5.5H83.3z M92.5,33.1l-2.7-5
							c-0.6-1.1-1-2.2-1.4-3.2h-0.1c-0.4,1-0.9,2.1-1.4,3.2l-2.7,5.1H92.5z"/>
						<path class="st4" d="M109.7,40.4l-9.1-17.5h3.9l4.3,8.6c1.2,2.4,2.2,4.5,3,6.5h0.1c0.8-2,1.9-4.2,3.2-6.5l4.7-8.6h3.8
							l-10,17.5H109.7z"/>
						<path class="st4" d="M131.9,22.9v17.5h-3.6V22.9H131.9z"/>
						<path class="st4" d="M145.2,24.8h-8.5v-1.9h20.6v1.9h-8.5v15.6h-3.6V24.8z"/>
						<path class="st4" d="M169.4,40.4V33l-8.8-10.1h4.1l3.9,4.8c1.1,1.3,1.9,2.4,2.8,3.6h0.1c0.8-1.1,1.7-2.3,2.8-3.6l4-4.8h4.1
							l-9.3,10.1v7.5H169.4z"/>
					</g>
				</g>
			</g>
		</g>
		<g>
			<defs>
				<path id="SVGID_1_" d="M55.6,171.1h20.3v-1.9H60.4v-0.1l15.4-14.2v-1.4H56.9v1.9h14.1v0.1l-15.5,14.2V171.1z M96.5,161H85.6
					v-5.5h11.5v-1.9H82v17.5h15.7v-1.9H85.6v-6.3h10.8V161z M104,171.1h3.6v-7.6h3.4c3.3,0.1,4.8,1,5.6,3.4c0.8,2.2,1.4,3.7,1.9,4.2
					h3.7c-0.6-0.7-1.2-2.4-2.2-4.8c-0.7-1.8-1.9-3.1-4.1-3.5v-0.1c2.9-0.6,5.3-2.2,5.3-4.5c0-1.3-0.8-2.5-2.2-3.3
					c-1.7-1-4.2-1.4-8.1-1.4c-2.5,0-5.1,0.1-6.9,0.4V171.1z M107.6,155.4c0.6-0.1,1.8-0.2,3.6-0.2c3.8,0,6.4,1,6.4,3.3
					c0,2-2.4,3.3-6.3,3.3h-3.7V155.4z M139.3,153.3c-7.4,0-12.9,3.6-12.9,9.2c0,5.3,5.2,8.9,12.5,8.9c7.1,0,12.9-3.2,12.9-9.2
					C151.9,156.9,146.9,153.3,139.3,153.3z M139.2,155.1c6,0,8.9,3.6,8.9,7.1c0,4-3.2,7.3-8.9,7.3c-5.7,0-8.9-3.3-8.9-7.1
					C130.2,158.6,133.2,155.1,139.2,155.1z M47.6,31.2h-9.2V33h5.7v5.2c-0.8,0.3-2.4,0.5-4.8,0.5c-6.5,0-10.8-2.6-10.8-7.1
					c0-4.4,4.4-7,11.2-7c2.8,0,4.7,0.3,6.2,0.8l0.9-1.8c-1.2-0.4-3.7-0.8-6.9-0.8c-9.3,0-15.1,3.8-15.1,9c0,2.7,1.5,5.1,3.9,6.5
					c2.7,1.6,6.2,2.3,10.4,2.3c3.8,0,6.9-0.6,8.6-1V31.2z M54.7,40.4h3.6v-7.6h3.4c3.3,0.1,4.8,1,5.6,3.4c0.8,2.2,1.4,3.7,1.9,4.2
					h3.7c-0.6-0.7-1.2-2.4-2.2-4.8c-0.7-1.8-1.9-3.1-4.1-3.5V32c2.9-0.6,5.3-2.2,5.3-4.5c0-1.4-0.8-2.5-2.2-3.3
					c-1.7-1-4.2-1.4-8.1-1.4c-2.5,0-5.1,0.1-6.9,0.4V40.4z M58.3,24.7c0.6-0.1,1.8-0.2,3.6-0.2c3.8,0,6.4,1,6.4,3.3
					c0,2-2.4,3.3-6.3,3.3h-3.7V24.7z M93.2,34.9l3,5.5h3.8l-9.5-17.5h-4.3l-9.5,17.5h3.7l2.9-5.5H93.2z M84.1,33.1l2.7-5.1
					c0.5-1.1,1-2.1,1.4-3.2h0.1c0.4,1,0.8,2.1,1.4,3.2l2.7,5H84.1z M113.7,40.4l10-17.5h-3.8l-4.7,8.6c-1.2,2.3-2.4,4.5-3.2,6.5
					h-0.1c-0.7-2.1-1.8-4.2-3-6.5l-4.3-8.6h-3.9l9.1,17.5H113.7z M128.3,22.9v17.5h3.6V22.9H128.3z M145.2,40.4h3.6V24.8h8.5v-1.9
					h-20.6v1.9h8.5V40.4z M173.1,40.4v-7.5l9.3-10.1h-4.1l-4,4.8c-1.1,1.3-2,2.5-2.8,3.6h-0.1c-0.9-1.2-1.7-2.3-2.8-3.6l-3.9-4.8
					h-4.1l8.8,10.1v7.4H173.1z"/>
			</defs>
			<clipPath id="SVGID_2_">
				<use xlink:href="#SVGID_1_"  style="overflow:visible;"/>
			</clipPath>
			<g class="st5">
				
					<image style="overflow:visible;opacity:0.49;" width="1213" height="1362" xlink:href="B775D463C7D40AFB.png"  transform="matrix(0.24 0 0 0.24 -48.7006 -86.3006)">
				</image>
				<g>
					<g>
						<path class="st3" d="M139.2,155.1c-6,0-8.9,3.5-8.9,7.3c0,3.7,3.2,7.1,8.9,7.1c5.7,0,8.9-3.3,8.9-7.3
							C148.1,158.8,145.2,155.1,139.2,155.1z"/>
						<path class="st3" d="M88.3,24.8L88.3,24.8c-0.5,1.1-1,2-1.5,3.1l-2.7,5h8.4l-2.7-5C89.1,26.7,88.7,25.8,88.3,24.8z"/>
						<path class="st3" d="M117.6,158.7c0-2.3-2.4-3.4-6.2-3.4c-1.7,0-2.8,0-3.3,0.1v6.9h3.2C115.1,162.3,117.6,160.7,117.6,158.7z"
							/>
						<path class="st3" d="M68.3,27.8c0-2.3-2.4-3.3-6.2-3.3c-1.7,0-2.9,0.1-3.4,0.2v6.5H62C65.9,31.2,68.3,29.8,68.3,27.8z"/>
						<path class="st3" d="M-46.1-83.8v319.1H237V-83.8H-46.1z M128,22.6h4.3v17.7H128V22.6z M47.4,39.6c-1.1,0.4-4.7,1-8.5,1
							c-4.2,0-7.6-0.7-10.4-2.3c-2.4-1.5-3.9-3.8-3.9-6.5c0-5.2,5.8-9,15.1-9c3.2,0,5.8,0.4,7,0.8l-0.9,1.8
							c-1.5-0.4-3.3-0.8-6.2-0.8c-6.8,0-11.2,2.6-11.2,7c0,4.4,4.3,7.1,10.8,7.1c2.4,0,4.3-0.2,4.8-0.5v-5.4h-5.9v-1.6h9.1V39.6z
							 M54.9,23.1c1.6-0.2,4.3-0.4,6.8-0.4c3.8,0,6.3,0.4,8,1.4c1.4,0.8,2.2,2,2.2,3.3c0,2.3-2.5,3.8-5.2,4.5v0.1
							c1.6,0.5,3.4,1.7,4.1,3.5c0.9,2.4,1.5,4.2,2.1,4.8h-3.7c-0.5,0-1.1-2-1.9-4.2c-0.8-2.4-2.3-3.4-5.6-3.4h-3.1v7.5h-3.8V23.1z
							 M75.9,170.9H56v-1.2l15.6-14.2v-0.2H57v-2.1h18.8v1.8l-15.6,14.2v-0.3h15.6V170.9z M97.9,170.9H82.3v-17.7h14.5v2.1H85.5v5.4
							h10.7v2.1H85.5v5.9h12.4V170.9z M96.2,40.3l-3-5.4h-9.9l-2.9,5.4h-3.7l9.5-17.7h4.3l9.5,17.7H96.2z M118.5,170.9
							c-0.5,0-1.1-2-1.9-4.2c-0.8-2.4-2.3-3.4-5.6-3.4h-2.9v7.5h-4.3v-17.1c2.1-0.2,4.5-0.4,7-0.4c3.8,0,6.4,0.4,8.1,1.4
							c1.4,0.8,2.3,2,2.3,3.3c0,2.3-2.4,3.8-5.1,4.5v0.1c1.6,0.5,3.3,1.6,4,3.4c0.9,2.4,1.5,4.2,2,4.7H118.5z M113.7,40.3h-4
							l-9.1-17.7h3.9l4.3,8.8c1.2,2.4,2.2,4.6,3,6.8h0.1c0.8-2.1,1.9-4.4,3.2-6.7l4.7-8.9h3.8L113.7,40.3z M138.9,171.4
							c-7.4,0-12.5-3.6-12.5-8.9c0-5.6,5.5-9.2,12.9-9.2c7.6,0,12.5,3.7,12.5,8.9C151.9,168.2,146,171.4,138.9,171.4z M157.5,24.8
							h-9.1v15.6h-3.2V24.8h-8.1v-2.1h20.4V24.8z M173.1,32.9v7.4h-3.8V33l-8.7-10.4h4.1l3.9,4.9c1.1,1.3,1.9,2.6,2.8,3.7h0.1
							c0.8-1.1,1.7-2.4,2.8-3.7l4-4.9h4.1L173.1,32.9z"/>
					</g>
				</g>
			</g>
		</g>
	</g>
	<g>
		<path class="st3" d="M40.8,70.2c2.6-2.8,5.7-5.1,9.3-6.7c3.6-1.6,7.7-2.5,12.3-2.5c4.5,0,8.5,0.8,12.1,2.3
			c3.6,1.5,6.6,3.6,8.9,6.1l7.6-7.9c-3.2-3.1-7.2-5.5-12.1-7.3c-4.9-1.8-10.4-2.7-16.6-2.7c-5.9,0-11.4,1-16.4,3
			c-5,2-9.4,4.7-13.1,8.3c-3.7,3.5-6.6,7.8-8.7,12.8c-2.1,5-3.1,10.5-3.1,16.6c0,6,1,11.5,3.1,16.5c2,5,4.9,9.3,8.5,12.9
			c3.6,3.6,8,6.4,13,8.4c5.1,2,10.6,3,16.6,3c5.7,0,10.8-0.6,15.6-1.8c4.8-1.2,9.8-2.8,13-5v-37H64v8.6h16.7v21.6
			c-2.7,1.2-4.9,2.2-7.9,2.8c-3.1,0.7-6.4,1-10,1c-4.6,0-8.8-0.8-12.5-2.4c-3.7-1.6-6.9-3.8-9.4-6.6c-2.6-2.8-4.5-6.1-5.9-9.9
			c-1.4-3.8-2.1-7.8-2.1-12.2c0-4.2,0.7-8.2,2.1-12C36.3,76.4,38.3,73.1,40.8,70.2z"/>
		<polygon class="st3" points="161.3,63 161.3,53.8 105.4,53.8 105.4,63.4 148,63.4 104.3,121.5 104.3,131.1 161.8,131.1 
			161.8,120.9 117.5,120.9 		"/>
	</g>
</g>
</svg>
