<?xml version="1.0" encoding="utf-8"?>
<!-- Generator: Adobe Illustrator 25.2.3, SVG Export Plug-In . SVG Version: 6.00 Build 0)  -->
<svg version="1.1" id="Layer_1" xmlns="http://www.w3.org/2000/svg" xmlns:xlink="http://www.w3.org/1999/xlink" x="0px" y="0px"
	 viewBox="0 0 200 200" style="enable-background:new 0 0 200 200;" xml:space="preserve">
<style type="text/css">
	.st0{fill:#BA494F;}
	.st1{opacity:0.3;fill:#231F20;}
	.st2{fill:#FFFFFF;}
</style>
<g>
	<rect x="0.1" y="0.6" class="st0" width="199.3" height="198.8"/>
	<polygon class="st1" points="199.4,92.1 161.2,53.8 105.4,53.8 105.4,63.4 130.2,88.2 124.7,95.3 91,61.7 57.1,53.3 25.5,82.1 
		32.1,120.8 110.6,199.4 199.4,199.4 	"/>
	<g>
		<path class="st2" d="M40.8,70.2c2.6-2.8,5.7-5.1,9.3-6.7c3.6-1.6,7.7-2.5,12.3-2.5c4.5,0,8.5,0.8,12.1,2.3
			c3.6,1.5,6.6,3.6,8.9,6.1l7.6-7.9c-3.2-3.1-7.2-5.5-12.1-7.3c-4.9-1.8-10.4-2.7-16.6-2.7c-5.9,0-11.4,1-16.4,3
			c-5,2-9.4,4.7-13.1,8.3c-3.7,3.5-6.6,7.8-8.7,12.8c-2.1,5-3.1,10.5-3.1,16.6c0,6,1,11.5,3.1,16.5c2,5,4.9,9.3,8.5,12.9
			c3.6,3.6,8,6.4,13,8.4c5.1,2,10.6,3,16.6,3c5.7,0,10.8-0.6,15.6-1.8c4.8-1.2,9.8-2.8,13-5v-37H64v8.6h16.7v21.6
			c-2.7,1.2-4.9,2.2-7.9,2.8c-3.1,0.7-6.4,1-10,1c-4.6,0-8.8-0.8-12.5-2.4c-3.7-1.6-6.9-3.8-9.4-6.6c-2.6-2.8-4.5-6.1-5.9-9.9
			c-1.4-3.8-2.1-7.8-2.1-12.2c0-4.2,0.7-8.2,2.1-12C36.3,76.4,38.3,73.1,40.8,70.2z"/>
		<polygon class="st2" points="161.3,63 161.3,53.8 105.4,53.8 105.4,63.4 148,63.4 104.3,121.5 104.3,131.1 161.8,131.1 
			161.8,120.9 117.5,120.9 		"/>
	</g>
</g>
</svg>
