<svg version="1.1" id="layer" xmlns="http://www.w3.org/2000/svg" x="0" y="0" viewBox="0 0 652 652" style="enable-background:new 0 0 652 652" xml:space="preserve"><style>.st0{fill:#313f5d}.st1{fill:#38b8ff}</style><g id="Cases-Logo-Placeholder-278x84"><g id="cases_logo"><g id="logo_monteray" transform="translate(61 19)"><path id="Shape" class="st0" d="M208 393.2v-22.4s-1.7 2-2.7 2.7c-3.7 3.7-9.8 4.1-13.6.3-1.4-1.4-2.4-3-2.7-4.7-.7-2.7-1-5.8-1-8.8v-26.8c0-2.7.3-5.1 1-7.8 1.4-4.7 6.4-7.8 11.2-6.4 1 .3 2 .7 2.7 1.4 2 1.4 3.7 2.7 5.4 4.1v-5.1h9.8v73.5H208zm0-61.6c-1-1.4-2.7-2.4-4.1-2.7-2-.7-4.1 0-4.7 2v.3c-.3 1.4-.3 2.4-.3 3.7v25.4c0 1.4 0 3 .3 4.4.7 2 3 2.7 4.7 2.4 1.7-.7 3-1.7 4.1-3v-32.5z"/><path id="Shape_1_" class="st0" d="M555.9 252.3c-2.7 14.9-5.8 29.8-8.5 44.7-.3 2.4-1.4 4.7-2.4 6.8-3.4 6.8-9.5 7.8-15.6 7.1h-1v-8.8h2.4c3 .3 6.1-1.7 6.8-4.7v-.7c.3-3.7 0-7.1-.7-10.8-3-15.6-6.4-31.5-9.5-47.1v-1h9.8l6.4 45.1c.3-.7 3.7-29.1 5.1-43l.3-2h10.2c-.3-.5-2.3 9.6-3.3 14.4z"/><path id="Shape_2_" class="st0" d="M127.7 213v167.3H125V213z"/><path id="Shape_3_" class="st0" d="m158.8 227.2 1 65.4h-9.1v-75.2h14.2c1.7 8.8 7.5 46.1 9.1 54.9 0 0 8.5-48.8 9.1-53.2l-.3-1.7h13.6v74.9h-9.1c-.3-21.7 0-43.4 1-65-.7 3.4-1.4 7.1-2 10.5-3.4 17.6-10.8 54.5-10.8 54.5h-4.7c-.4.3-12-64.7-12-65.1z"/><path id="Shape_4_" class="st0" d="M479.3 253.3c6.8 3 8.1 9.1 8.1 15.2 0 3.4 0 6.8-.7 10.2-.7 7.1-6.4 12.5-13.6 12.9-6.8.7-13.6.7-20.3.7h-1.4v-74.5h.3c7.1.3 14.6 0 21.7.7 8.1 1 11.5 4.7 12.5 12.5.3 4.7.3 9.1-.3 13.9-.2 4-2.9 7.1-6.3 8.4zm-16.9 29.5h7.1c3-.3 5.4-2.7 6.1-5.4 1-4.1 1.4-8.5.3-12.9-.3-2-1.7-4.1-3.7-4.7-3-1-6.4-1.4-9.5-.7v23.7h-.3zm0-55.9v22c2.4.3 4.7 0 7.1-.3 2.4-.3 4.4-2.4 5.1-4.7 1-3.7 1-7.8 0-11.5-.3-2.7-2.4-4.4-5.1-4.7-2.1-.5-4.4-.5-7.1-.8z"/><path id="Shape_5_" class="st0" d="M395.6 375.6h-10.2v-55.9h9.5v6.8c1.4-1.7 2.7-3 4.1-4.4 1.7-1.4 3.4-2.4 5.1-3 3.4-1 7.1.7 8.1 4.1.3 1 .7 2 1.4 3 1.4-1.4 2.7-3 4.4-4.4 1.4-1.4 3-2 4.7-2.7 3.7-1.4 7.5.7 8.8 4.4 0 .3 0 .3.3.7.7 3.4 1.4 7.1 1.4 10.8v40.6H423v-40c0-1.4 0-2.7-.3-4.1-.7-1.7-2.4-2.7-4.1-2.4-.3 0-.7.3-1 .7-1 .7-2 1.7-3 3v42.7h-10.5V336c0-1.7 0-3.4-.3-4.7-.7-1.7-2.4-2.7-4.1-2.4-.3 0-.7.3-1 .3-1.4 1-2.4 2-3 3.4v43z"/><path id="Shape_6_" class="st0" d="M156.8 300.4h14.6l11.5 75.2h-11.5l-2-14.9h-11.2s-1.4 10.5-1.7 14.9h-10.8l11.1-75.2zm11.9 50.1c-1.4-14.6-4.4-43.4-4.4-43.4-1.7 14.6-3 28.8-4.7 43.4h9.1z"/><path id="Shape_7_" class="st0" d="M255 292.6h-10.2V237h9.5v6.8c1-1 2.4-2.7 3.7-3.7 2.4-2.7 5.4-4.1 9.1-4.1 3.4 0 6.4 2.4 7.5 5.4.7 3 1 6.4 1 9.8v41.3h-10.2v-40c0-1.4 0-2.7-.3-4.1-.7-1.7-2.4-3-4.4-2.7h-.3c-3 .7-5.1 3-5.1 6.1-.3 12.7-.3 39.8-.3 40.8z"/><path id="Shape_8_" class="st0" d="M327.9 273.3h9.8c0 6.1 0 11.9-4.7 16.3-6.1 5.8-15.6 5.8-21.7-.3-1.7-1.7-3-4.1-3.7-6.4-.7-2.4-1-5.1-1-7.5 0-8.8 0-18 .7-26.8.3-6.8 5.8-12.2 12.5-12.2 9.1-.7 14.2 2.7 16.6 10.2 1.4 6.1 2 12.9 1.4 19.3v1h-21s0 10.2.3 13.9c.3 2.7 2.7 4.7 5.4 4.4.7 0 1.7-.3 2.4-.7 2-1 3-3.4 2.7-5.4.3-1.7.3-5.8.3-5.8zm.3-15.3s0-6.4-.7-9.5c-.7-3-2-3.7-5.1-3.7-2.4-.3-4.4 1.4-4.7 4.1-.3 2.7-.3 5.4-.3 7.8v1.4h10.8z"/><path id="Shape_9_" class="st0" d="M492.2 252c.7-15.2 14.2-17.6 23.4-14.6 3.7 1.4 6.1 4.4 6.8 8.5.7 2.7 1 5.4 1 8.1 0 10.2 0 20.3.3 30.5 0 2.7.3 5.4.7 8.5h-9.8l-.3-1c-.3-1.4-.7-2.7-.7-4.1-1.4 1.4-2.4 2.4-3.7 3.4-4.7 3.7-11.5 3-15.2-1.4-1.4-1.7-2.4-4.1-2.4-6.1-1.4-7.5 1.7-14.9 7.5-19.6 3.7-2.7 7.8-5.4 12.2-7.8.7-.3 1-.7 1.7-.7 0-1.4 0-4.4-.3-5.8 0-2-1.7-4.1-3.7-4.4-2.4-.7-4.7.7-5.8 2.7-.3.7-.7 1.4-.7 2-.3 1-.3 1.7-.3 2.7-2.3-.9-8.7-.9-10.7-.9zm21 11.8c-4.4 1.7-8.1 4.7-10.2 9.1-.7 2-1 4.4-.7 6.4 0 2.4 2 4.4 4.4 4.4h.3c2.4-.7 4.4-1.7 6.4-3.4-.2-4.3-.2-11.1-.2-16.5z"/><path id="Shape_10_" class="st0" d="M236.4 280.4c-1.4 10.2-7.8 14.2-17.6 13.2-7.1-.3-12.5-6.1-12.5-13.2-.3-4.1-.7-7.8-.3-11.9 0-6.4-.3-12.9.3-19 .7-8.5 7.8-14.9 16.3-14.2 2.7.3 5.1 1 7.1 2.4 4.1 2.4 6.4 6.4 6.8 10.8.3 10.9.3 21.4-.1 31.9zm-20.3-15.6v12.9c0 1.4 0 2.4.3 3.7.3 2.4 2.4 3.7 4.7 3.7 2.4.3 4.4-1.4 4.7-3.7.3-1.4.7-3 .7-4.4v-24.4c0-1.4-.3-3-.7-4.4-1-2.7-3.7-4.1-6.4-3-1.4.7-2.4 1.7-3 3-.3 1.4-.7 2.4-.7 3.7 0 4.5 0 8.5.4 12.9z"/><path id="Shape_11_" class="st0" d="M302.5 284.1v7.5c0 .3-.7 1-1.4 1.4-3.4 1-7.1.7-10.5-.3-3.4-1.4-6.1-4.7-6.1-16.9V245.7h-6.1V237h6.1v-14.9H295V237h7.1v8.5H295v33.6c0 4.1 1.7 5.4 5.8 5.1h1.7z"/><path id="Shape_12_" class="st0" d="M355.3 292.6h-10.2V237h9.5v6.4c2.4-4.4 7.1-7.1 11.9-7.1v10.8c-1.4 0-3-.3-4.4-.3-3-.3-6.1 1.7-6.4 4.7v1c0 1.4-.3 2.7-.3 3.7v36.4z"/><path id="Shape_13_" class="st0" d="M327.9 375.6V320h9.8v55.6z"/><path id="Shape_14_" class="st0" d="M327.9 300.4h9.8v10.2h-9.8z"/><path id="Shape_15_" class="st0" d="M450.8 324.1c0 3-2.4 5.8-5.4 6.1h-.3c-3.4 0-6.1-2.4-6.1-5.8v-.3c0-3.4 2.7-6.1 6.1-6.1s6.1 2.4 6.1 5.8c-.4 0-.4.3-.4.3zm-6-5.1c-2.7 0-5.1 2-5.1 4.7v.3c0 2.7 2 5.1 5.1 5.1 2.7 0 5.1-2.4 5.1-5.1.3-2.6-2.1-5-5.1-5z"/><path id="Shape_16_" class="st1" d="M-27.8 259.4s19-34.2 67.4-28.8c15.6 2.7 29.8 10.8 40.3 22.7 0 0-13.9 6.4-43-3-.4.3-35.9-19.4-64.7 9.1"/><path id="Shape_17_" class="st1" d="M94.5 319.7c-2.4 6.8-15.2 16.3-20.3 18.3-4.1 2-7.8 4.7-10.8 8.5 0-9.1 9.1-20.3 21-30.5s12.9-27.1 12.9-27.1c3.9 10.8-.5 23.7-2.8 30.8"/><path id="Shape_18_" class="st1" d="M75.8 345.4c.7-2.4 1-4.7 1.4-7.1 3.4-.7 10.8-6.8 10.8-6.8-1.7 12.9-12.2 13.9-12.2 13.9"/><path id="Shape_19_" class="st1" d="M36.5 358.3c-6.1-1.7-12.5-2.7-19-2.7 11.5-9.5 29.8-8.5 42.7-6.8s19.6-3.7 19.6-3.7c-9.7 19-35.1 15.9-43.3 13.2"/><path id="Shape_20_" class="st1" d="M27.1 365.4c2.4 0 7.8-5.1 7.8-5.1 5.1 1.4 10.2 2 15.2 2.4-13.6 9.2-23 2.7-23 2.7"/><path id="Shape_21_" class="st1" d="M-10.9 342.1c-3-4.7-7.1-9.1-11.2-12.9 23 1.4 33.2 22 40.3 31.2 6.1 7.8 11.9 8.5 11.9 8.5-23.7 5.3-37.3-19.7-41-26.8"/><path id="Shape_22_" class="st1" d="M-2.8 358c-11.2-.3-15.6-12.9-15.6-12.9.3 1 7.5.7 7.5.7 3.1 4.7 8.1 12.5 8.1 12.2"/><path id="Shape_23_" class="st1" d="M-39.7 312.6c8.5 4.1 14.2 11.5 15.9 20.7 4.1 16.3 7.1 19 7.5 19.3.3.3-18.3-10.2-23.4-40"/><path id="Shape_24_" class="st1" d="M-12.2 315c5.1 1.4 9.5 4.7 12.2 9.1l.7.3c1.7-2.4 4.1-3.4 6.8-3.7 2.7.7 5.1 1.7 7.1 3 3.7 2 8.8.7 10.8-3-4.1-2.7-8.8-4.4-13.6-3.7-5.8.7-11.5.3-17.3-1-3.7-.7-6.1-4.1-6.4-7.8l-1-.3c-4.7 1-9.5-.3-13.2-3.4 1.7 6.1 6.1 9.4 13.9 10.5zm-6.8-15.3c3 1.4 5.8 4.1 7.5 7.1l.7.3c1-2 5.1-2 5.1-2 3.7.7 7.5 6.1 7.5 6.1 7.5 4.1 8.5 1.7 8.5 1.7-4.4-9.8-12.9-8.5-19-10.5-3-.7-5.1-3.7-4.4-6.8 0-.3 0-.3.3-.7l-1-.7c-5.4-.3-9.8-3.7-11.9-8.8-1.4 5.8 1.3 11.6 6.7 14.3zm3.4-12.5c1.7 1.7 2.7 4.1 3 6.4l.7.3c3.7-.7 7.5 1.7 8.8 5.4 3.7 3.4 6.8 2.7 6.8 2.7-1-5.4-8.1-9.1-11.2-10.8s-2-6.4-2-6.4c.3-1-1-1.4-1-1.4-6.8-1.7-7.5-10.2-7.5-10.2-4.7 5.5-.3 11.6 2.4 14zm6.7-9.2c.7 1.7 1 3.4.7 5.1l.3.7c2-.3 3.7 1 4.4 3 .7 3 3 5.4 5.8 6.8 1-4.1-2-7.1-4.7-10.8-1.7-2-1.7-4.7 0-6.8l-.7-1c-4.7-1.7-5.4-8.5-5.4-8.5-3.4 3.7-1.7 7.1-.7 11.2l.3.3zm7.2-7.4c.7 1.4.7 3 0 4.4l.3.7c3 .3 3.4 4.4 3.4 4.4-1 4.7.7 5.1.7 5.1 3.4-4.7-.3-12.5-1.4-14.2-.7-2.4-1.4-4.4-1.7-6.8-3 1.6-1.3 6.4-1.3 6.4zm8.1 4.4c1.4-3.7 1.4-7.5.3-11.2-5.1 4.1-.3 11.2-.3 11.2zm3.7-6.1 3.4-5.8c-4.7-1-3.4 5.8-3.4 5.8zM26 254.7c-5.1 4.4-9.8 9.5-13.9 14.9-2 3.4-4.1 6.8-5.4 10.2-.7 2.4-1.4 4.4-1.7 6.8-.7 2.4-1 4.7-.3 7.1-.7 5.1.7 4.4 2.4 8.1s3.4 4.7 6.1 8.5c2.7 3.7 3.4 3.4 3.4 3.4 3 .3 6.1 1 9.1 2 3.7 2.4 5.8.7 5.8.7 3-1.4 8.5-3.4 10.5-4.1 1.4-.7 2.7-1.7 3.4-2.7 1.4-3.7 3-7.1 5.4-10.2 1.4-2 1.4-2.7.7-5.8-.7-3-1-8.5-1-8.5.7-2.4 0-4.4-1.7-6.1-2-1.4-4.1-2.7-6.1-4.4-3.7-4.4-6.4-4.1-6.4-4.1-15.9-2.4-17.3-5.4-17.3-5.4l3-3.7c3.4 2.4 7.1 3.7 11.5 4.4 14.9 3.4 23.4-7.5 32.5-8.1s9.5 7.1 9.5 7.1l.7.3c5.1-2.7 15.6 2.4 19 13.6 1.7 6.8 1 14.2-1.7 20.7 0-8.1-9.5-15.6-13.6-21-2.4-3.4-3.7-7.5-4.1-11.5l-1.4-1.4c-2 2.4-2 6.1-13.2 2.7-11.2-3.4-16.6 1-16.6 1 5.4 7.8 10.5 8.1 20 11.5s11.5 5.8 11.5 5.8c8.5 9.1 1 14.2 1 14.2l.7 1c4.1 2 7.1 5.8 8.5 10.2-3.4 3.4-6.8 6.4-10.5 9.1-2-6.1-1.7-12.5.7-18.3l-.7-1c-5.1-.7-6.1 1.4-9.1-8.5-1.4-5.4-5.4-9.5-10.8-10.5-1 7.1-1.4 13.9 6.4 25.7 7.8 11.9 6.1 14.2 6.1 14.2 0 4.1-3 7.1-6.8 7.5v.7c3.7 6.8-.3 16.3-.3 16.3-5.1-.7-10.2-1-15.2-1 2.7-6.4 7.8-11.9 14.2-15.2l-.3-.7c-3.7-2-5.1-6.4-3.4-10.2 1-2 1.7-4.4 1.7-6.8-.3-9.1-4.1-10.2-4.1-10.2-6.4 6.1-8.1 23-8.1 23-.3 11.5-4.1 13.6-4.1 13.6-2.4 2-6.1 2.7-9.1 1l-.7.7c-3.7 6.1-9.1 10.5-15.9 12.9-.3-.7-8.5-11.9-8.5-11.9 4.7-4.4 23-2.4 23-2.4l.3-.7c-1.4-3.4 0-7.5 3-9.5 8.5-4.1 8.5-10.5 8.5-10.5.7-4.1-.3-2.4-5.1-1-4.7 1.4-14.2 14.6-24.7 15.2S.6 327.3.6 327.3c-.7-1.7-1.7-1.4-1.7-1.4-3.4 1-6.8 1.4-10.5.7-15.2-3.7-28.1-15.6-29.1-33.2s13.2-32.9 13.2-32.9C-2.8 234.4 31.1 250 31.1 250l-5.1 4.7z"/><path id="Shape_25_" class="st0" d="M312.6 375.3h-10.2V320h9.5v6.1c2.4-4.4 7.1-7.1 11.9-7.1v10.8c-1.4 0-3-.3-4.4-.3-3-.3-6.1 1.7-6.4 4.7v1c0 1.4-.3 2.7-.3 3.7v36.4z"/><path id="Shape_26_" class="st0" d="M390.2 273.3h10.2c0 6.1 0 11.9-4.7 16.3-6.1 5.8-15.6 5.8-21.7-.3-1.7-1.7-3-4.1-3.7-6.4-.7-2.4-1-5.1-1-7.5 0-8.8 0-18 .7-26.8.3-6.8 5.8-12.2 12.5-12.2 9.1-.7 14.2 2.7 16.6 10.2 1.4 6.1 2 12.9 1.4 19.3v1h-21s0 10.2.3 13.9c.3 2.7 2.7 4.7 5.4 4.4.7 0 1.4-.3 2-.7 2-1 3-3.4 2.7-5.4.3-1.7.3-5.8.3-5.8zm0-15.3s0-6.4-.7-9.5c-.7-3-2-3.7-5.1-3.7-2.4-.3-4.4 1.4-4.7 4.1-.3 2.7-.3 5.4-.3 8.1v1.4c3-.4 10.8-.4 10.8-.4z"/><path id="Shape_27_" class="st0" d="M431.5 252.3c-2.7 14.9-5.8 29.8-8.5 44.7-.3 2.4-1.4 4.7-2.4 6.8-3.4 6.8-9.5 7.8-15.6 7.1h-1v-8.8h2c3 .3 6.1-1.7 6.8-4.7v-.7c.3-3.7 0-7.1-.7-10.8-2.7-15.9-6.1-31.8-9.5-47.4v-1h9.8l6.4 45.1c.3-.7 3.7-29.1 5.1-43l.3-2h10.2c.5-.2-1.8 9.9-2.9 14.7z"/><path id="Shape_28_" class="st0" d="M366.5 320h10.2v55.6h-9.5v-6.8c-1 1-2.4 2.7-3.7 3.7-2.4 2.7-5.4 4.1-9.1 4.1-3.4 0-6.4-2.4-7.5-5.4-.7-3-1-6.4-1-9.8V320H356v40c0 1.4 0 2.7.3 4.1.3 1.7 2 3 3.7 2.7h.3c2.7-.3 5.1-4.4 5.1-4.4 1.1-12.9 1.1-41.3 1.1-42.4z"/><path id="Shape_29_" class="st0" d="M246.6 320h10.2v55.6h-9.5v-6.8c-1 1-2.4 2.7-3.7 3.7-2.4 2.7-5.4 4.1-9.1 4.1-3.4 0-6.4-2.4-7.5-5.4-.7-3-1-6.4-1-9.8V320h10.2v40c0 1.4.3 2.7.7 3.7.3 1.7 2 3 3.7 2.7h.3c2.7-.3 5.1-4.1 5.1-4.1.6-12.4.6-41.2.6-42.3z"/><path id="Shape_30_" class="st0" d="M263.5 334.9c.7-15.2 14.2-17.6 23.4-14.6 3.7 1.4 6.1 4.4 6.8 8.5.7 2.7 1 5.4 1 8.1 0 10.2 0 20.3.3 30.5 0 2.7.3 5.4.7 8.5h-9.8l-.3-1c-.3-1.4-.7-2.7-.7-4.1-1.4 1.4-2.4 2.4-3.7 3.4-4.7 3.7-11.5 3-15.2-1.4-1.4-1.7-2.4-4.1-2.4-6.1-1.4-7.5 1.7-14.9 7.5-19.6 3.7-2.7 7.8-5.4 12.2-7.8 1-.7 1.7-1.4 1.7-2.7s0-2.7-.3-4.1c0-2-1.7-4.1-3.7-4.4-2.4-.7-4.7.7-5.8 2.7-.3.7-.7 1.4-.7 2-.3 1-.3 1.7-.3 2.7-2.6-.2-8.7-.2-10.7-.6zm20.7 12.2c-4.4 1.7-8.1 4.7-10.2 9.1-.7 2-1 4.4-.7 6.4 0 2.4 2 4.4 4.4 4.4 2.4-.7 4.4-1.7 6.4-3.4v-16.5h.1z"/><path id="Shape_31_" class="st0" d="M443.4 324.8v2.7h-1v-6.4h2c.7 0 1.4 0 2 .3.3.3.7.7.7 1.4s-.7 1.4-1.7 1.7l2 2.7h-1l-2-2.7h-1v.3zm0-.7h1.4c.3 0 1 0 1.4-.3.3-.3.3-.7.3-1 0-.3 0-.7-.3-1-.3-.3-1-.3-1.4-.3h-1.4v2.6z"/></g></g></g></svg>